<svg width="30" height="29" viewBox="0 0 30 29" fill="none" xmlns="http://www.w3.org/2000/svg">
<path d="M16.2094 15.8605L27.7737 15.8602C28.5261 15.8604 29.1342 15.2523 29.1341 14.4999C29.1341 13.7477 28.526 13.1395 27.7737 13.1395L16.2093 13.1397L16.2096 1.57538C16.2094 0.822982 15.6015 0.215047 14.8492 0.215054C14.0969 0.214886 13.4887 0.823011 13.4889 1.57541L13.4886 13.1397L1.92431 13.14C1.17191 13.1398 0.563789 13.7479 0.563957 14.5003C0.563777 14.8754 0.715978 15.2161 0.962253 15.4624C1.20853 15.7086 1.54905 15.8607 1.92428 15.8607L13.4886 15.8604L13.4885 27.4248C13.4884 27.8001 13.6405 28.1406 13.8867 28.3869C14.133 28.6331 14.4735 28.7852 14.8488 28.7852C15.6012 28.7853 16.2093 28.1772 16.2091 27.4248L16.2094 15.8605Z" fill="#FFAD45"/>
</svg>
