<svg width="1920" height="317" viewBox="0 0 1920 317" fill="none" xmlns="http://www.w3.org/2000/svg">
<mask id="mask0_34_50" style="mask-type:alpha" maskUnits="userSpaceOnUse" x="0" y="-1" width="1920" height="318">
<rect y="-0.00012207" width="1920" height="317" fill="url(#paint0_linear_34_50)"/>
</mask>
<g mask="url(#mask0_34_50)">
<rect y="-0.00012207" width="1920" height="317" fill="url(#paint1_linear_34_50)"/>
<g opacity="0.5">
<path d="M0 -8H618.498L203.274 461H0V-8Z" fill="url(#paint2_linear_34_50)"/>
<path d="M1920 461L1301.5 461L1716.73 -8.00007L1920 -8.00006L1920 461Z" fill="url(#paint3_linear_34_50)"/>
<path d="M1116.33 461L497.835 461L913.059 -8.00007L1116.33 -8.00006L1116.33 461Z" fill="url(#paint4_linear_34_50)"/>
<path d="M803.667 -8.00012L1422.17 -8.00007L1006.94 461L803.667 461L803.667 -8.00012Z" fill="url(#paint5_linear_34_50)"/>
</g>
<g opacity="0.15">
<path d="M18.1222 0.316954C17.9148 0.316954 17.7222 0.278818 17.5296 0.215164L15.3073 -0.612366L4.34398 0.138783L4.10693 -2.39463L15.4258 -3.17126C15.6629 -3.18399 15.9147 -3.15851 16.137 -3.06939L18.3889 -2.2292L26.641 -2.52198L28.6115 -7.44878C28.73 -7.74159 28.967 -7.98344 29.2633 -8.13621L31.5301 -9.26927C30.2115 -11.0007 28.7892 -12.7321 28.1077 -13.3559C27.204 -13.2158 25.1299 -12.7702 23.3817 -12.3628C22.8187 -12.2355 22.2261 -12.3883 21.8557 -12.7702L14.9517 -19.8104L10.5368 -21.5672L5.44031 -22.9931L6.35886 -25.4119L11.5442 -23.9605C11.6035 -23.9478 11.6479 -23.9224 11.7072 -23.9096L16.4925 -22C16.6851 -21.9236 16.8629 -21.8091 16.9963 -21.669L23.5002 -15.0363C25.3225 -15.4565 27.767 -15.9402 28.5078 -15.9529C29.2633 -15.9402 30.1374 -15.9275 34.8487 -9.5239C35.0561 -9.23109 35.1302 -8.87461 35.0413 -8.54361C34.9524 -8.21261 34.7006 -7.91979 34.345 -7.74156L31.219 -6.1757L29.1004 -0.879662C28.9078 -0.383163 28.3744 -0.0394535 27.7522 -0.0267239L18.137 0.304289C18.1667 0.31702 18.137 0.316954 18.1222 0.316954Z" fill="#FEFEFE"/>
<path d="M30.5523 24.4164L28.4041 22.6595L31.9005 19.4896L35.7673 13.4551L38.8933 7.80268L35.5154 5.60028C35.3821 5.51117 35.2635 5.39658 35.1598 5.26927L32.8931 2.21394L30.8782 2.96501L27.6633 7.40803L29.3078 8.57931C29.5893 8.783 29.7671 9.05033 29.8263 9.35587L31.0708 16.0395C31.1597 16.4724 30.9671 16.9179 30.5819 17.2107C30.1967 17.5035 29.6634 17.5927 29.1744 17.4654L24.8188 16.2814L22.6261 18.3565L20.4334 16.6378L23.2631 13.9644C23.6483 13.5952 24.2558 13.4551 24.8039 13.6079L27.7818 14.4099L26.9966 10.2343L24.7891 8.65569C24.2261 8.24831 24.0928 7.54806 24.478 7.00063L28.6115 1.28454C28.7744 1.06812 28.9967 0.889947 29.2782 0.788101L32.8635 -0.54869C33.5302 -0.790574 34.3154 -0.599607 34.7006 -0.0649152L37.5007 3.70341L41.6341 6.38958C42.1971 6.75878 42.3749 7.40802 42.0786 7.95544L38.3896 14.6009L34.4043 20.8517C34.345 20.9535 34.2709 21.03 34.182 21.1191L30.5523 24.4164Z" fill="#FEFEFE"/>
<path d="M32.1968 35.9505L30.9671 33.6334L36.671 31.4056C36.7303 31.3801 36.8043 31.3547 36.8636 31.3419L42.8045 29.8396L46.8343 28.0955C47.3528 27.8664 47.9899 27.93 48.4344 28.2483L52.5826 31.1637L54.3753 27.459L57.5309 21.8956C57.6495 21.6919 57.8124 21.5265 58.0199 21.3992L66.5387 16.345L66.6424 10.8836L61.8126 10.8199C61.2496 10.8071 60.7459 10.5398 60.5088 10.1069L56.6569 3.35965L51.2493 3.28327C50.8937 3.28327 50.5381 3.15595 50.2715 2.95226L45.7232 -0.599596L41.6934 1.76831C41.4415 1.92108 41.1304 1.98479 40.8341 1.98479L33.4264 1.88292L33.4709 -0.663234L40.4045 -0.57411L45.012 -3.28577C45.575 -3.61677 46.3306 -3.57863 46.8491 -3.18398L51.8419 0.724375L57.5902 0.800756C58.1532 0.813487 58.6569 1.08083 58.894 1.51368L62.7459 8.26104L68.1535 8.33742C68.5535 8.33742 68.9239 8.47745 69.1906 8.71933C69.4573 8.96122 69.6202 9.29224 69.6054 9.62324L69.4721 17.0071C69.4721 17.4145 69.2202 17.7964 68.835 18.0383L60.0051 23.2706L57.0569 28.4648L54.5234 33.6716C54.3457 34.0408 53.9753 34.3209 53.516 34.41C53.0567 34.5118 52.5826 34.41 52.2123 34.1554L47.2639 30.6799L43.975 32.1057C43.9009 32.1439 43.812 32.1694 43.7231 32.1949L37.7525 33.7098L32.1968 35.9505Z" fill="#FEFEFE"/>
<path d="M39.5156 1.2464L36.7007 -4.13879L32.5524 -7.9707L34.7154 -9.70215L39.0415 -5.7174C39.1452 -5.61555 39.2489 -5.50095 39.3082 -5.37364L42.2268 0.202466L39.5156 1.2464Z" fill="#FEFEFE"/>
<path d="M54.8938 2.86309L52.5975 1.24634L55.605 -1.8982L52.9086 -3.9096C52.5382 -4.17695 52.3456 -4.59706 52.4049 -5.01717C52.4641 -5.43729 52.7456 -5.79377 53.1753 -5.99747L56.4939 -7.53792L58.0643 -12.312C58.1828 -12.6557 58.4643 -12.9485 58.8347 -13.1013C59.2051 -13.254 59.6496 -13.2794 60.0348 -13.1394L65.1461 -11.408L69.5314 -12.9612L75.9909 -16.1439L77.4576 -13.9287L70.9092 -10.7079C70.85 -10.6824 70.7907 -10.6569 70.7314 -10.6315L65.6942 -8.84914C65.3386 -8.72184 64.9386 -8.72184 64.5831 -8.84914L60.4348 -10.2496L59.1458 -6.31574C59.0421 -5.98474 58.7755 -5.70468 58.4199 -5.53918L56.4346 -4.62252L58.5977 -3.00577C59.2051 -2.56019 59.2792 -1.77087 58.7755 -1.23618L54.8938 2.86309Z" fill="#FEFEFE"/>
<path d="M774.399 16.1287C773.822 16.1287 773.288 15.8359 773.036 15.3648L771.155 11.6347L764.873 9.29232C764.325 9.08863 763.969 8.6176 763.984 8.10837L764.073 2.95235L756.784 -4.43148L745.391 -4.58424L734.413 3.49976C734.131 3.70346 733.776 3.8181 733.42 3.80537L720.872 3.63986L708.738 8.52843C708.042 8.80851 707.212 8.57939 706.827 8.0065L704.649 4.72195L702.545 7.90464L699.967 6.64431L703.36 1.51377C703.627 1.11911 704.116 0.864567 704.649 0.864567C705.182 0.864567 705.671 1.10645 705.938 1.5011L708.738 5.70224L719.938 1.1955C720.146 1.10638 720.353 1.08097 720.59 1.08097L732.917 1.24647L743.895 -6.83761C744.176 -7.0413 744.547 -7.13041 744.887 -7.14314L757.51 -6.97763C757.94 -6.97763 758.34 -6.81208 758.621 -6.53201L766.71 1.65387C766.947 1.88302 767.066 2.18853 767.066 2.49406L766.977 7.28084L772.888 9.48324C773.229 9.61055 773.511 9.85246 773.659 10.1453L775.229 13.2388L779.081 12.0549L781.97 5.70224C782.074 5.47309 782.252 5.28212 782.474 5.14208L789.689 0.622677C790.03 0.406254 790.459 0.329815 790.859 0.4062C791.274 0.482582 791.63 0.699059 791.837 1.01733L794.222 4.53103L797.911 0.520809C798.371 0.0370407 799.156 -0.102997 799.793 0.202541L803.067 1.78114V1.37375C803.082 0.737213 803.63 0.202545 804.371 0.12616L814.075 -0.879543L820.86 -3.17114L817.705 -7.95792C817.542 -8.19981 817.482 -8.49256 817.527 -8.77263L819.912 -22.4709L814.519 -33.063C814.416 -33.2666 814.371 -33.4703 814.401 -33.6867L815.067 -39.9121L818.016 -39.683L817.394 -33.7759L822.801 -23.1457C822.92 -22.9293 822.949 -22.6873 822.905 -22.4455L820.534 -8.8236L824.283 -3.14566C824.49 -2.82739 824.534 -2.44544 824.386 -2.08898C824.238 -1.74525 823.927 -1.46521 823.527 -1.32516L814.964 1.56474C814.845 1.60294 814.727 1.62839 814.593 1.64112L805.986 2.53229L805.956 3.95813C805.941 4.40371 805.66 4.81106 805.215 5.04021C804.756 5.25664 804.208 5.26938 803.749 5.05296L799.408 2.9651L795.156 7.58637C794.845 7.91737 794.385 8.10834 793.882 8.07014C793.393 8.04468 792.948 7.80281 792.711 7.44635L790.059 3.53799L784.518 7.01347L781.54 13.5571C781.377 13.9008 781.066 14.1682 780.651 14.2955L774.859 16.0651C774.725 16.1033 774.562 16.1287 774.399 16.1287Z" fill="#FEFEFE"/>
<path d="M802.801 84.6583C802.786 84.6583 802.786 84.6583 802.771 84.6583L797.645 84.5946L797.689 82.0485L801.334 82.0994L801.393 78.8276L794.845 73.5826C794.489 73.2898 794.311 72.8696 794.385 72.4495C794.46 72.0294 794.771 71.6729 795.215 71.4947L805.171 67.4717C805.275 67.4335 805.378 67.3954 805.482 67.3827L818.757 64.8874L826.357 57.1853L827.987 53.2643C828.076 53.0478 828.224 52.8696 828.431 52.7168L830.935 50.8963C831.513 50.4762 832.357 50.5017 832.905 50.9472L836.52 53.9008L840.239 51.0491C840.417 50.9091 840.639 50.8073 840.876 50.7563L844.935 49.9161L840.743 45.3967C840.491 45.1293 840.372 44.7728 840.432 44.4291C840.491 44.0854 840.698 43.7671 841.024 43.5634L846.847 39.9479L849.232 38.6494L844.106 26.606C843.854 26.0077 844.15 25.3457 844.787 25.0529L849.839 22.7104L849.854 21.9593L843.928 21.8829C843.38 21.8702 842.876 21.6028 842.624 21.1827L837.883 13.1115L832.298 6.1732C832.268 6.135 832.239 6.09677 832.209 6.04584L830.92 3.99621L826.653 3.14327C826.327 3.07962 826.031 2.91414 825.824 2.68498L821.794 -1.75804L824.135 -3.32397L827.853 0.762626L832.268 1.65379C832.683 1.74291 833.039 1.97206 833.231 2.29033L834.787 4.78551L840.372 11.7365C840.417 11.7875 840.446 11.8384 840.476 11.8893L844.861 19.3495L851.38 19.4386C851.78 19.4386 852.15 19.5786 852.417 19.8205C852.684 20.0624 852.847 20.3934 852.832 20.7244L852.787 23.4997C852.773 23.958 852.476 24.3781 852.017 24.5946L847.335 26.7716L852.432 38.7512C852.669 39.3113 852.417 39.9479 851.825 40.2661L848.506 42.0739L844.017 44.862L848.699 49.9033C849.01 50.247 849.113 50.6926 848.936 51.1128C848.773 51.5201 848.372 51.8384 847.884 51.9403L841.913 53.1624L837.468 56.587C836.891 57.0198 836.017 57.0199 835.454 56.5616L831.824 53.5953L830.639 54.4482L829.053 58.2547C828.994 58.3947 828.905 58.5348 828.787 58.6493L820.683 66.8607C820.475 67.0771 820.194 67.2172 819.868 67.2808L806.267 69.8397L798.445 72.9969L803.882 77.3508C804.193 77.5927 804.356 77.9364 804.356 78.3056L804.267 83.4107C804.267 83.7417 804.104 84.0727 803.823 84.3018C803.556 84.531 803.186 84.6583 802.801 84.6583Z" fill="#FEFEFE"/>
<path d="M873.07 52.9968C873.025 52.9968 872.981 52.9968 872.936 52.9968C872.462 52.9586 872.032 52.7295 871.781 52.373L869.292 48.6812L862.61 45.0147L856.165 44.9256C855.78 44.9256 855.41 44.7856 855.143 44.5437L850.002 40.0879L852.106 38.2928L856.817 42.3794L863.069 42.4686C863.351 42.4686 863.617 42.5449 863.84 42.6722L871.173 46.6952C871.366 46.8097 871.544 46.9497 871.662 47.128L873.277 49.5214L875.277 47.4845L883.485 38.4838L879.351 33.888C878.996 33.4806 878.936 32.9332 879.218 32.5003L882.418 27.4972L878.433 23.0159C878.092 22.634 878.033 22.1248 878.27 21.6919L880.788 17.1852L883.929 8.98666L886.359 3.32146L884.211 2.32843L880.522 4.58179C879.959 4.92552 879.203 4.88732 878.685 4.49267L874.358 1.19537C873.795 0.762524 873.692 0.0241966 874.136 -0.497765L877.529 -4.54614L878.181 -12.7575C875.559 -18.2317 874.24 -21.4017 874.255 -22.1783C874.27 -22.9167 874.284 -23.9097 883.485 -27.2706L888.685 -31.7391L888.833 -40.065C885.011 -42.6748 880.536 -45.4756 879.47 -45.7811C879.025 -45.8193 878.611 -45.9976 878.299 -46.3031C877.914 -46.685 876.744 -47.8435 878.359 -59.1611L881.307 -58.8556C880.699 -54.6545 880.299 -49.6513 880.566 -48.1363C881.796 -47.7035 884.551 -46.2903 891.248 -41.6691C891.604 -41.4272 891.811 -41.0453 891.796 -40.6506L891.633 -31.1789C891.633 -30.8479 891.47 -30.5297 891.204 -30.3005L885.366 -25.2973C885.233 -25.1828 885.07 -25.0936 884.892 -25.03C881.914 -23.9479 878.448 -22.4966 877.292 -21.7964C877.722 -20.5615 879.425 -16.7804 881.025 -13.4577C881.114 -13.2794 881.144 -13.0758 881.129 -12.8848L880.418 -4.01147C880.403 -3.76958 880.299 -3.54041 880.136 -3.34945L877.277 0.0496483L879.722 1.90829L883.203 -0.217728C883.663 -0.497803 884.27 -0.535992 884.774 -0.294109L888.863 1.60276C889.515 1.9083 889.796 2.57035 889.544 3.1687L886.685 9.82686L883.529 18.051C883.514 18.1019 883.485 18.1528 883.455 18.2037L881.292 22.0866L885.307 26.606C885.663 27.0134 885.707 27.5481 885.426 27.9937L882.225 32.9841L886.477 37.6945C886.892 38.1528 886.892 38.8021 886.477 39.2604L877.514 49.0758L874.121 52.5258C873.929 52.8441 873.514 52.9968 873.07 52.9968Z" fill="#FEFEFE"/>
<path d="M891.04 109.929L888.685 102.036L884.922 98.764C884.611 98.4967 884.462 98.1275 884.492 97.7583C884.537 97.3891 884.759 97.0454 885.114 96.829L891.826 92.806L894.285 90.8709L887.129 85.4859C887.026 85.4095 886.951 85.3331 886.877 85.2312L880.166 76.5743C880.062 76.4343 879.988 76.2815 879.944 76.116L878.003 67.8665L877.07 68.1721L875.751 73.4808C875.603 74.0791 875.055 74.4865 874.284 74.4865L867.425 74.3973C866.98 74.3973 866.566 74.2191 866.299 73.9263L860.373 67.6119C859.884 67.0899 859.943 66.3515 860.506 65.8932L863.662 63.3216L861.677 59.2478C861.425 58.7258 861.603 58.1274 862.106 57.771L872.107 50.7437L873.988 52.7169L864.832 59.1459L866.788 63.1561C867.025 63.6399 866.892 64.2128 866.447 64.5692L863.543 66.9371L868.18 71.8767L873.129 71.9403L874.358 66.9754C874.462 66.5552 874.803 66.2115 875.262 66.0587L878.581 64.9511C878.996 64.8111 879.44 64.8365 879.825 65.0148C880.21 65.193 880.477 65.5113 880.566 65.8805L882.803 75.3649L889.233 83.6781L897.485 89.8907C897.796 90.1326 897.989 90.4763 897.989 90.8328C897.989 91.1892 897.811 91.5457 897.5 91.7876L893.737 94.7411C893.692 94.7793 893.633 94.8175 893.589 94.8429L888.24 98.0511L891.055 100.495C891.233 100.661 891.366 100.852 891.44 101.068L893.9 109.305L891.04 109.929Z" fill="#FEFEFE"/>
<path d="M893.915 68.7575C893.796 68.7575 893.678 68.7448 893.544 68.7193L884.788 66.8097L879.292 67.3953L878.922 64.8746L884.7 64.2635C884.877 64.2508 885.07 64.2508 885.248 64.289L893.529 66.0968L899.707 61.641L900.33 55.2502C900.374 54.7537 900.759 54.3336 901.293 54.1553C904.404 53.1751 908.108 51.8765 908.937 51.4054C909.397 50.6671 911.174 47.1152 912.7 43.9452C912.819 43.6779 913.041 43.4615 913.338 43.3214C918.715 40.6734 921.16 39.5277 922.36 39.0312C922.464 37.7072 922.434 34.1935 922.33 31.189C922.316 30.8962 922.434 30.6162 922.627 30.387L930.39 21.5519L927.101 12.6021L923.323 10.247C923.056 10.0815 922.864 9.8523 922.775 9.58495L920.315 2.5703L915.071 -4.27886C914.819 -4.60986 914.76 -5.02999 914.923 -5.41191L917.797 -12.2101L915.486 -14.769L909.886 -12.8975C909.693 -12.8339 909.486 -12.7957 909.263 -12.8085L902.063 -13.1267L893.722 -11.5354C893.248 -11.4463 892.759 -11.5608 892.403 -11.8282L888.877 -14.5398C888.818 -14.578 888.774 -14.6289 888.729 -14.6799L879.707 -24.0369L881.988 -25.6665L890.937 -16.3858L893.811 -14.1706L901.604 -15.6602C901.737 -15.6856 901.87 -15.6983 902.004 -15.6856L909.085 -15.3673L915.412 -17.4934C916.019 -17.6971 916.715 -17.5316 917.115 -17.086L920.612 -13.2158C920.923 -12.8721 921.012 -12.4138 920.834 -11.9937L917.93 -5.14454L922.878 1.32271C922.953 1.42455 923.012 1.53914 923.056 1.65372L925.427 8.43915L929.19 10.7816C929.442 10.9471 929.634 11.1636 929.738 11.4309L933.397 21.4118C933.546 21.8064 933.457 22.2393 933.16 22.5576L925.249 31.5582C925.516 40.0751 925.16 40.3807 924.671 40.8008C924.479 40.9663 924.227 41.0935 923.96 41.1445C923.204 41.4118 919.027 43.3978 915.189 45.2947C914.049 47.6499 911.797 52.2584 911.249 52.9332C911.011 53.226 910.463 53.888 903.145 56.2432L902.552 62.3539C902.522 62.6977 902.33 63.0032 902.033 63.2196L894.804 68.4392C894.611 68.6556 894.27 68.7575 893.915 68.7575ZM923.649 41.1954C923.753 41.1954 923.812 41.1954 923.871 41.1827C923.812 41.1954 923.738 41.1954 923.649 41.1954ZM923.427 38.6747C923.308 38.6874 923.19 38.7256 923.086 38.7638C923.234 38.7129 923.353 38.6874 923.427 38.6747Z" fill="#FEFEFE"/>
<path d="M942.42 64.7729C942.42 64.7729 942.405 64.7729 942.391 64.7729L935.19 64.6839C934.864 64.6839 934.538 64.582 934.287 64.4038L930.82 62.0231L923.264 61.9212C923.101 61.9212 922.923 61.8958 922.775 61.8449L915.442 59.5024C915.205 59.4261 914.982 59.286 914.819 59.1205L908.967 53.0352L911.249 51.4056L916.849 57.2236L923.575 59.3751L931.383 59.477C931.709 59.477 932.035 59.5788 932.287 59.757L935.753 62.1377L941.902 62.2141L956.495 51.864C956.761 51.673 957.117 51.5839 957.458 51.5711L962.347 51.6348L962.48 44.0218C962.495 43.4744 962.91 42.9906 963.517 42.8251L967.888 41.6284L966.777 35.8104C966.702 35.4412 966.836 35.0594 967.117 34.7666C967.399 34.4865 967.814 34.3209 968.243 34.3209C968.243 34.3209 968.258 34.3209 968.273 34.3209L974.658 34.4101L977.073 24.391C977.192 23.8945 977.651 23.4998 978.244 23.3979L982.999 22.5959C983.162 22.5704 983.325 22.5705 983.503 22.5832L990.392 23.4362L994.081 18.7767C994.363 18.4202 994.837 18.2293 995.326 18.2166L1002.11 18.3056L1008.57 16.8034L1011.02 14.8047C1011.3 14.5755 1011.68 14.4737 1012.05 14.4482L1019.05 14.5374C1019.5 14.5374 1019.93 14.7283 1020.2 15.0466L1023.53 18.8658L1029.1 18.4839C1029.55 18.4584 1029.99 18.5984 1030.3 18.8785L1036.79 24.8493L1044.96 25.4094L1048.02 22.5577C1048.32 22.2777 1048.75 22.1376 1049.21 22.1503C1049.65 22.1758 1050.07 22.3667 1050.32 22.685L1055.76 29.2286C1055.99 29.5087 1056.08 29.8652 1056.01 30.2089C1055.94 30.5527 1055.7 30.8454 1055.36 31.0364L1052.2 32.7932L1053 37.72C1053.08 38.2165 1052.81 38.7131 1052.31 38.9805L1048.41 41.0173L1050.42 45.0276L1053.52 48.7449L1051.11 50.2217L1047.91 46.3897C1047.85 46.3133 1047.79 46.2369 1047.76 46.1478L1045.18 41.0046C1044.88 40.419 1045.13 39.7443 1045.77 39.4133L1049.93 37.2363L1049.15 32.335C1049.08 31.8512 1049.33 31.3547 1049.82 31.0874L1052.47 29.6105L1048.99 25.4222L1046.66 27.5737C1046.35 27.8537 1045.91 28.0065 1045.46 27.9811L1036.01 27.3318C1035.64 27.3063 1035.3 27.1663 1035.05 26.9371L1028.65 21.0555L1022.97 21.4374C1022.47 21.4756 1021.98 21.2846 1021.67 20.9282L1018.27 17.0453L1012.6 16.9689L1010.32 18.8276C1010.14 18.9677 1009.92 19.0822 1009.68 19.1332L1002.66 20.7754C1002.53 20.8136 1002.39 20.8264 1002.24 20.8264L996.052 20.7372L992.289 25.4858C991.977 25.8932 991.414 26.1096 990.851 26.0332L983.296 25.0911L979.755 25.6895L977.281 35.9123C977.133 36.4979 976.525 36.9307 975.829 36.9307C975.829 36.9307 975.814 36.9307 975.799 36.9307L969.962 36.8544L970.999 42.2522C971.118 42.876 970.688 43.4744 969.992 43.6781L965.428 44.9257L965.28 52.8952C965.265 53.5954 964.599 54.1428 963.799 54.1428C963.799 54.1428 963.784 54.1428 963.769 54.1428L957.932 54.0664L943.339 64.4165C943.102 64.6711 942.776 64.7729 942.42 64.7729Z" fill="#FEFEFE"/>
<path d="M1216.67 75.314L1215.02 69.5215C1214.9 69.0759 1215.05 68.6049 1215.44 68.2993L1224.09 61.2465L1216.21 59.0059C1215.58 58.8277 1215.18 58.3311 1215.18 57.7837L1215.33 49.4706C1215.33 49.1396 1215.5 48.8085 1215.78 48.5794C1216.06 48.3503 1216.47 48.2102 1216.83 48.2229L1218.77 48.2484L1215.76 45.1039C1215.38 44.6965 1215.32 44.1237 1215.61 43.6653L1218.58 39.1968C1218.7 39.0186 1218.86 38.8785 1219.05 38.764L1224.46 35.7214C1224.9 35.4668 1225.47 35.4412 1225.94 35.6449L1230.77 37.7583L1242.95 28.7831C1243.23 28.5794 1243.6 28.4903 1243.94 28.4776L1255.22 28.6303L1255.32 22.9779C1255.32 22.7105 1255.42 22.4559 1255.6 22.2395L1258.96 18.3056C1259.08 18.1656 1259.23 18.0511 1259.39 17.9747L1266.16 14.4482L1266.28 7.53543C1266.3 7.03894 1266.64 6.59332 1267.17 6.38963L1282.28 0.69902L1299.16 -12.3246L1299.23 -16.3602L1296.52 -18.3207C1296.25 -18.5117 1296.08 -18.7791 1296.02 -19.0719L1295.75 -20.4086L1290.54 -23.6422C1290.3 -23.7822 1290.12 -23.9859 1290.02 -24.2278L1287.25 -30.5041C1287.07 -30.8987 1287.14 -31.3443 1287.42 -31.688L1297.53 -44.0241C1300.2 -47.0795 1303.22 -50.7969 1303.59 -51.6753C1303.65 -52.2228 1304.24 -53.6613 1311.1 -60.2559C1311.31 -60.4596 1311.59 -60.5996 1311.88 -60.6505L1319.68 -62.1018L1321.88 -69.091L1317.96 -74.3743L1310.83 -78.9446L1305.54 -79.021C1305.19 -79.021 1304.86 -79.1356 1304.6 -79.3266L1298.91 -83.5532C1298.64 -83.7441 1298.48 -84.0115 1298.42 -84.3043L1297 -91.5226L1291.68 -95.8129C1291.42 -96.0166 1291.26 -96.2966 1291.22 -96.6022L1290.59 -101.364L1284.51 -103.273C1283.91 -103.464 1283.51 -103.948 1283.53 -104.495L1283.65 -111.077C1283.65 -111.37 1283.76 -111.65 1283.99 -111.866L1289.38 -117.443L1286.3 -119.912L1282.25 -115.52C1282.09 -115.355 1281.9 -115.215 1281.66 -115.138L1276.34 -113.229L1276.15 -102.866C1276.14 -102.229 1275.57 -101.694 1274.83 -101.618L1268.83 -101.071L1264.18 -96.3349C1263.76 -95.9148 1263.08 -95.7747 1262.49 -95.9784L1259.25 -97.1242L1255.35 -94.2343C1255.01 -93.9797 1254.56 -93.8778 1254.13 -93.9415L1246.33 -95.0872C1246.18 -95.1127 1246.03 -95.1509 1245.9 -95.2018L1240.15 -97.7225L1236.3 -95.4437C1235.99 -95.2655 1235.62 -95.1764 1235.24 -95.2273L1225.79 -96.3985C1225.41 -96.4494 1225.05 -96.6277 1224.81 -96.895L1223.35 -98.6009L1220.89 -96.7932L1220.79 -91.128C1220.79 -90.7333 1220.56 -90.3769 1220.19 -90.135L1213.94 -86.0611C1213.41 -85.7174 1212.67 -85.7174 1212.15 -86.0611L1204.73 -90.9752L1202.62 -88.8364L1202.55 -84.7881C1202.55 -84.4571 1202.38 -84.1261 1202.1 -83.8969C1201.82 -83.6678 1201.45 -83.5405 1201.05 -83.5405L1195.52 -83.6169L1187.58 -76.5258L1187.52 -73.063L1196.38 -70.135C1196.7 -70.0331 1196.96 -69.8422 1197.12 -69.6003L1199.53 -66.0993C1199.82 -65.6665 1199.79 -65.119 1199.45 -64.7116L1194.37 -58.6518L1200.25 -33.9669L1207.53 -29.422C1208.12 -29.0528 1208.31 -28.3653 1207.97 -27.8052L1202.16 -18.2826L1199.35 2.58315C1199.3 2.86323 1199.17 3.11787 1198.95 3.32156L1173.67 25.7532L1171.18 32.5896C1171.11 32.7678 1171.01 32.946 1170.86 33.0861L1154.09 48.4394L1153.97 55.454C1153.95 56.0269 1153.51 56.5234 1152.86 56.6634L1142.12 59.0568C1141.51 59.1968 1140.86 58.9804 1140.5 58.5221L1137.72 54.8811L1127.8 54.7538C1127.42 54.7538 1127.05 54.6138 1126.77 54.3719L1123.52 51.5583C1123.24 51.3165 1123.09 50.9855 1123.09 50.6418L1123.18 45.8041L1119.31 45.7531C1119.03 45.7531 1118.77 45.6768 1118.54 45.5495L1108.4 39.9861L1100.68 40.8518C1100.25 40.9027 1099.8 40.7754 1099.48 40.5208L1085.88 29.7506L1071.82 24.9129C1071.25 24.7219 1070.88 24.2381 1070.88 23.7162L1070.96 19.4514L1068.63 18.1401L1055.65 30.8072L1053.43 29.1268L1067.25 15.6194C1067.74 15.1357 1068.57 15.0466 1069.18 15.403L1073.25 17.7073C1073.68 17.9492 1073.94 18.3565 1073.92 18.7894L1073.85 22.876L1087.22 27.4718C1087.39 27.5354 1087.55 27.6118 1087.68 27.7137L1100.97 38.2293L1108.53 37.3763C1108.87 37.3382 1109.23 37.4018 1109.52 37.5673L1119.76 43.1816L1124.69 43.2452C1125.51 43.2579 1126.16 43.8308 1126.14 44.5438L1126.04 50.1198L1128.43 52.1822L1138.52 52.3095C1139 52.3095 1139.46 52.5259 1139.73 52.8824L1142.37 56.3197L1150.99 54.3974L1151.11 47.8665C1151.11 47.5482 1151.26 47.2427 1151.51 47.0135L1168.44 31.5201L1170.95 24.671C1171.02 24.48 1171.14 24.3018 1171.3 24.1618L1196.47 1.832L1199.26 -18.83C1199.27 -18.9828 1199.33 -19.1355 1199.42 -19.2755L1204.77 -28.0343L1198.07 -32.2228C1197.78 -32.4137 1197.57 -32.6811 1197.5 -32.9993L1191.38 -58.7155C1191.29 -59.0592 1191.38 -59.4284 1191.63 -59.7212L1196.53 -65.5519L1194.89 -67.9453L1185.55 -71.0389C1184.98 -71.2298 1184.59 -71.7136 1184.61 -72.2483L1184.69 -77.0987C1184.69 -77.417 1184.84 -77.7352 1185.11 -77.9644L1193.9 -85.8193C1194.18 -86.0739 1194.59 -86.2266 1194.99 -86.2139L1199.69 -86.1503L1199.75 -89.3839C1199.75 -89.6767 1199.88 -89.9567 1200.1 -90.1859L1203.45 -93.6105C1203.95 -94.1324 1204.86 -94.2216 1205.5 -93.8015L1213.14 -88.7346L1217.91 -91.8409L1218.01 -97.4552C1218.01 -97.8244 1218.21 -98.1681 1218.53 -98.3973L1222.71 -101.465C1223.02 -101.694 1223.44 -101.809 1223.84 -101.758C1224.25 -101.72 1224.62 -101.542 1224.86 -101.249L1226.9 -98.8683L1235.17 -97.8498L1239.27 -100.281C1239.72 -100.549 1240.3 -100.574 1240.79 -100.371L1247.11 -97.5952L1254 -96.5895L1258.06 -99.6067C1258.49 -99.925 1259.08 -100.001 1259.59 -99.8231L1262.68 -98.7283L1267.02 -103.146C1267.28 -103.4 1267.62 -103.553 1268 -103.591L1273.29 -104.075L1273.47 -114.145C1273.48 -114.654 1273.84 -115.1 1274.39 -115.304L1280.25 -117.404L1285.05 -122.624C1285.31 -122.904 1285.69 -123.082 1286.11 -123.108C1286.51 -123.133 1286.92 -123.006 1287.23 -122.764L1292.51 -118.537C1293.08 -118.079 1293.14 -117.315 1292.64 -116.793L1286.68 -110.644L1286.59 -105.425L1292.57 -103.566C1293.1 -103.4 1293.47 -102.993 1293.53 -102.509L1294.19 -97.417L1299.48 -93.1522C1299.72 -92.9612 1299.87 -92.7066 1299.93 -92.4393L1301.35 -85.2464L1306.22 -81.6181L1311.44 -81.5545C1311.75 -81.5545 1312.05 -81.4654 1312.3 -81.2999L1320.03 -76.3476C1320.18 -76.2585 1320.3 -76.1439 1320.4 -76.0166L1324.82 -70.0713C1325.04 -69.7658 1325.11 -69.3966 1325 -69.0529L1322.37 -60.7779C1322.23 -60.3196 1321.8 -59.9631 1321.26 -59.874L1313.05 -58.3463C1310.2 -55.5837 1307.05 -52.2992 1306.6 -51.4335C1306.51 -50.8733 1305.82 -49.282 1299.99 -42.6238L1290.37 -30.8733L1292.71 -25.59L1298.05 -22.2673C1298.36 -22.0764 1298.57 -21.7835 1298.64 -21.4525L1298.92 -20.0522L1301.77 -18.0025C1302.11 -17.7606 1302.3 -17.3914 1302.3 -17.0095L1302.21 -11.8153C1302.21 -11.4589 1302.03 -11.1279 1301.72 -10.886L1284.12 2.71043C1284 2.79955 1283.87 2.87598 1283.72 2.92691L1269.26 8.37563L1269.14 15.1739C1269.13 15.6067 1268.86 16.0141 1268.43 16.2432L1261.2 19.9988L1258.3 23.4107L1258.18 29.9288C1258.16 30.629 1257.5 31.1765 1256.7 31.1765C1256.7 31.1765 1256.68 31.1765 1256.67 31.1765L1244.47 31.011L1231.97 40.228C1231.51 40.559 1230.87 40.6227 1230.34 40.3935L1225.39 38.2293L1221.01 40.6991L1218.73 44.1364L1223.13 48.7194C1223.5 49.1013 1223.57 49.636 1223.32 50.0816C1223.07 50.5272 1222.58 50.8073 1221.96 50.8073L1218.3 50.7564L1218.19 56.8671L1227.39 59.4769C1227.88 59.617 1228.27 59.9734 1228.37 60.4062C1228.49 60.8391 1228.33 61.2974 1227.94 61.603L1218.12 69.6106L1219.56 74.6902L1216.67 75.314Z" fill="#FEFEFE"/>
<path d="M1011.09 16.7397L990.762 2.44312C990.451 2.22668 990.259 1.90842 990.229 1.5647C990.199 1.22095 990.333 0.877228 990.599 0.62262L997.296 -5.87012C997.577 -6.13745 997.977 -6.30292 998.407 -6.30292C998.407 -6.30292 998.422 -6.30292 998.437 -6.30292L1005.98 -6.20111L1005.89 -23.1712C1005.89 -23.5022 1006.04 -23.8204 1006.3 -24.0496L1010.02 -27.385C1007.25 -28.0852 1004.56 -29.0146 1003.83 -30.084C1003.55 -30.5041 1003.47 -30.9624 1003.64 -31.408C1004.1 -32.7193 1009.53 -39.6957 1011.84 -42.6238C1012.13 -42.9675 1012.59 -43.184 1013.07 -43.184C1013.07 -43.184 1013.09 -43.184 1013.1 -43.184L1015.68 -43.1457L1020.78 -48.4799L1020.93 -56.6021L1012.82 -64.2406C1012.57 -64.4825 1012.44 -64.788 1012.44 -65.119L1012.51 -69.6257C1012.53 -70.0585 1012.79 -70.4659 1013.22 -70.6951L1017.03 -72.6684L1016.45 -83.0057C1016.41 -83.6677 1016.97 -84.2407 1017.74 -84.3298C1021.28 -84.7244 1029.76 -85.4628 1032.04 -83.8842C1032.75 -83.3877 1036.56 -83.6677 1040.29 -84.4443L1042.6 -89.7531C1042.82 -90.2496 1043.37 -90.5805 1043.99 -90.5805C1043.99 -90.5805 1044.01 -90.5805 1044.02 -90.5805L1048.96 -90.5169C1049.36 -90.5169 1049.74 -90.3641 1050.01 -90.1095L1057.7 -83.0821C1057.74 -83.0439 1057.79 -82.993 1057.83 -82.9421L1061.25 -78.7791L1063.14 -79.2375C1061.15 -81.2744 1059.59 -84.4189 1062.04 -87.6652C1065.25 -91.9173 1067.82 -99.3011 1067.85 -99.3775C1067.91 -99.5558 1068.02 -99.7339 1068.17 -99.874L1081.09 -112.057L1079.33 -121.173C1079.21 -121.745 1079.57 -122.306 1080.19 -122.547L1088.07 -125.565C1088.57 -125.756 1089.17 -125.692 1089.6 -125.399L1103.26 -115.978L1108.87 -113.942C1110.31 -115.826 1113.23 -119.594 1114.31 -120.472L1121.36 -126.227L1116.43 -132.821L1111.05 -132.898C1110.62 -132.898 1110.2 -133.076 1109.94 -133.356C1109.66 -133.636 1109.54 -134.018 1109.61 -134.387L1110.51 -138.881C1110.57 -139.148 1110.72 -139.403 1110.96 -139.581L1116.68 -144.241L1115.74 -150.122L1112.78 -152.707L1110.47 -150.351C1110.22 -150.097 1109.85 -149.931 1109.46 -149.906C1109.05 -149.893 1108.68 -149.982 1108.38 -150.211L1100.66 -155.851C1100.4 -156.042 1100.22 -156.322 1100.16 -156.615L1098.28 -166.685C1098.25 -166.825 1098.25 -166.965 1098.28 -167.105L1100.08 -175.737C1100.19 -176.22 1100.6 -176.602 1101.15 -176.742C1104.06 -177.43 1107.51 -178.474 1108.44 -179.021C1108.8 -180.231 1110.19 -182.828 1112.62 -186.761L1112.74 -193.038C1112.74 -193.432 1112.96 -193.802 1113.33 -194.043L1119.66 -198.105L1115.15 -200.982C1114.56 -201.351 1114.38 -202.038 1114.72 -202.599L1118.78 -209.18L1109.64 -214.896C1109.15 -215.202 1108.93 -215.737 1109.08 -216.233L1111.17 -223.451L1108.56 -229.715C1108.43 -230.033 1108.44 -230.39 1108.62 -230.695L1112.87 -238.257C1113 -238.499 1113.24 -238.703 1113.52 -238.83L1124.47 -243.77L1128.41 -247.78L1125.06 -250.479L1123.49 -248.353C1123.27 -248.06 1122.91 -247.856 1122.51 -247.78C1122.11 -247.716 1121.7 -247.793 1121.37 -247.996L1116.72 -250.886L1113.43 -247.933C1113.14 -247.665 1112.75 -247.513 1112.31 -247.538C1111.88 -247.551 1111.49 -247.729 1111.21 -248.009L1108.29 -251.103L1100.63 -248.149C1100.2 -247.984 1099.71 -248.009 1099.3 -248.2L1091.95 -251.765C1091.39 -252.045 1091.09 -252.605 1091.22 -253.152L1093 -260.052L1095.2 -267.016C1095.24 -267.143 1095.3 -267.271 1095.39 -267.373L1101.36 -275.266L1091.94 -280.931C1091.63 -281.122 1091.42 -281.402 1091.33 -281.72L1089.42 -289.715L1085.45 -302.28L1079.15 -302.369C1078.41 -302.382 1077.79 -302.853 1077.7 -303.49L1076.6 -311.128C1076.54 -311.587 1076.77 -312.032 1077.19 -312.312L1087.79 -319.021L1086.28 -337.825L1080.96 -346.316C1080.87 -346.443 1080.82 -346.596 1080.8 -346.736L1079.17 -356.539L1072.65 -361.873C1072.47 -362.013 1072.34 -362.191 1072.26 -362.395L1069.51 -369.537C1069.3 -370.097 1069.55 -370.695 1070.13 -371.014L1076.04 -374.222L1081.61 -382.866C1081.88 -383.273 1082.4 -383.503 1082.93 -383.528L1097.49 -383.337L1098.84 -389.55L1093.8 -391.319C1093.34 -391.485 1093 -391.841 1092.91 -392.261C1092.83 -392.681 1092.99 -393.127 1093.34 -393.42L1100.43 -399.187L1100.6 -409.384C1100.6 -409.753 1100.8 -410.097 1101.14 -410.339L1115.71 -420.905L1116.35 -425.056L1111.43 -425.119C1110.83 -425.132 1110.29 -425.45 1110.07 -425.934L1104.25 -438.741L1090.69 -449.817C1090.63 -449.868 1090.59 -449.919 1090.53 -449.97L1083.11 -458.385C1082.69 -458.856 1082.71 -459.518 1083.15 -459.963L1087.86 -464.839L1082.16 -468.226C1081.68 -468.506 1081.43 -469.015 1081.54 -469.499L1083.06 -476.666L1080.45 -481.899L1083.18 -482.904L1085.97 -477.328C1086.08 -477.099 1086.11 -476.844 1086.05 -476.603L1084.62 -469.868L1090.87 -466.163C1091.21 -465.96 1091.43 -465.641 1091.49 -465.285C1091.55 -464.928 1091.43 -464.572 1091.17 -464.305L1086.17 -459.136L1092.83 -451.612L1106.53 -440.409C1106.69 -440.282 1106.81 -440.129 1106.88 -439.951L1112.47 -427.678L1118.06 -427.602C1118.49 -427.602 1118.87 -427.436 1119.15 -427.156C1119.43 -426.876 1119.55 -426.52 1119.49 -426.163L1118.56 -420.116C1118.51 -419.798 1118.32 -419.518 1118.04 -419.314L1103.54 -408.799L1103.36 -398.639C1103.36 -398.296 1103.18 -397.977 1102.9 -397.736L1097.03 -392.962L1101.06 -391.548C1101.71 -391.319 1102.08 -390.734 1101.97 -390.135L1100.17 -381.848C1100.04 -381.249 1099.43 -380.804 1098.72 -380.804C1098.72 -380.804 1098.71 -380.804 1098.69 -380.804L1083.77 -381.007L1078.45 -372.745C1078.34 -372.554 1078.16 -372.401 1077.95 -372.287L1072.69 -369.435L1074.96 -363.541L1081.58 -358.13C1081.82 -357.926 1081.98 -357.672 1082.02 -357.392L1083.68 -347.373L1089.03 -338.843C1089.14 -338.69 1089.2 -338.512 1089.21 -338.321L1090.8 -318.55C1090.83 -318.117 1090.6 -317.697 1090.2 -317.443L1079.65 -310.759L1080.48 -304.966L1086.6 -304.89C1087.27 -304.877 1087.83 -304.495 1088.01 -303.948L1092.29 -290.377L1094.11 -282.802L1104.22 -276.717C1104.87 -276.322 1105.05 -275.558 1104.6 -274.986L1097.98 -266.24L1095.86 -259.53L1094.35 -253.598L1100.08 -250.81L1108.1 -253.891C1108.71 -254.12 1109.43 -253.98 1109.86 -253.534L1112.44 -250.797L1115.46 -253.509C1115.97 -253.967 1116.8 -254.031 1117.4 -253.662L1121.83 -250.912L1123.52 -253.203C1123.76 -253.522 1124.14 -253.738 1124.59 -253.789C1125.03 -253.827 1125.46 -253.712 1125.79 -253.458L1131.46 -248.875C1132.04 -248.416 1132.09 -247.64 1131.58 -247.131L1126.54 -242C1126.43 -241.873 1126.26 -241.771 1126.1 -241.695L1115.33 -236.844L1111.57 -230.135L1114.11 -224.024C1114.22 -223.782 1114.23 -223.528 1114.16 -223.286L1112.2 -216.526L1121.58 -210.657C1122.17 -210.288 1122.37 -209.588 1122.01 -209.028L1117.94 -202.433L1123.02 -199.187C1123.39 -198.945 1123.61 -198.576 1123.61 -198.168C1123.61 -197.761 1123.39 -197.392 1123.02 -197.15L1115.69 -192.439L1115.58 -186.481C1115.58 -186.278 1115.52 -186.087 1115.4 -185.908C1113.55 -182.904 1111.46 -179.212 1111.31 -178.499C1111.31 -177.812 1111.28 -176.666 1102.86 -174.578L1101.25 -166.94L1103 -157.544L1109.17 -153.038L1111.57 -155.482C1111.83 -155.749 1112.22 -155.915 1112.63 -155.928C1113.06 -155.953 1113.45 -155.8 1113.74 -155.546L1118.2 -151.675C1118.43 -151.484 1118.57 -151.23 1118.62 -150.95L1119.73 -143.999C1119.79 -143.591 1119.63 -143.184 1119.29 -142.904L1113.37 -138.079L1112.86 -135.469L1117.3 -135.406C1117.79 -135.406 1118.25 -135.176 1118.53 -134.82L1124.56 -126.774C1124.94 -126.265 1124.86 -125.577 1124.34 -125.157L1116.4 -118.677C1115.58 -118.003 1112.49 -114.056 1110.72 -111.714C1110.34 -111.192 1109.55 -111.001 1108.9 -111.23L1101.95 -113.751C1101.83 -113.801 1101.7 -113.852 1101.6 -113.929L1088.48 -122.98L1082.48 -120.689L1084.17 -111.93C1084.25 -111.548 1084.11 -111.153 1083.8 -110.861L1070.63 -98.4354C1070.11 -96.9841 1067.7 -90.4659 1064.57 -86.3412C1061.99 -82.9293 1066.74 -79.8358 1066.94 -79.7085C1067.4 -79.4157 1067.62 -78.9319 1067.52 -78.4608C1067.42 -77.9771 1067.02 -77.5952 1066.47 -77.4679L1061.09 -76.1566C1060.48 -76.0038 1059.85 -76.2075 1059.48 -76.6404L1055.51 -81.4654L1048.31 -88.0344L1045.05 -88.0726L1042.84 -82.9803C1042.68 -82.5984 1042.29 -82.3056 1041.83 -82.191C1039.12 -81.5672 1032.59 -80.3069 1030.22 -81.9491C1029.37 -82.4584 1024.56 -82.471 1019.52 -81.9873L1020.08 -72.0828C1020.11 -71.6118 1019.83 -71.1661 1019.37 -70.9243L1015.5 -68.9255L1015.44 -65.6283L1023.55 -57.9898C1023.8 -57.748 1023.93 -57.4424 1023.93 -57.1114L1023.77 -48.0471C1023.77 -47.7543 1023.65 -47.487 1023.43 -47.2578L1017.56 -41.0961C1017.28 -40.8033 1016.87 -40.6251 1016.42 -40.6251C1016.42 -40.6251 1016.41 -40.6251 1016.39 -40.6251L1013.9 -40.6632C1010.91 -36.844 1007.79 -32.732 1006.81 -31.2043C1007.89 -30.6823 1010.59 -29.8803 1013.22 -29.3202C1013.74 -29.2183 1014.14 -28.8746 1014.29 -28.4417C1014.44 -28.0089 1014.3 -27.5379 1013.93 -27.2069L1008.91 -22.6874L1008.99 -4.95346C1008.99 -4.60974 1008.82 -4.27878 1008.54 -4.04962C1008.26 -3.80774 1007.92 -3.70584 1007.47 -3.68039L999.103 -3.79498L993.874 1.27182L1013 14.7282L1011.09 16.7397ZM1108.31 -178.626C1108.31 -178.601 1108.31 -178.576 1108.31 -178.55C1108.29 -178.576 1108.29 -178.601 1108.31 -178.626Z" fill="#FEFEFE"/>
</g>
</g>
<defs>
<linearGradient id="paint0_linear_34_50" x1="1383.5" y1="124.819" x2="760.244" y2="-408.679" gradientUnits="userSpaceOnUse">
<stop stop-color="#FFC83E"/>
<stop offset="1" stop-color="#FF9F47"/>
</linearGradient>
<linearGradient id="paint1_linear_34_50" x1="1383.5" y1="124.819" x2="760.244" y2="-408.679" gradientUnits="userSpaceOnUse">
<stop stop-color="#FFC83E"/>
<stop offset="1" stop-color="#FF9F47"/>
</linearGradient>
<linearGradient id="paint2_linear_34_50" x1="1192.46" y1="364.701" x2="299.459" y2="215.705" gradientUnits="userSpaceOnUse">
<stop stop-color="white"/>
<stop offset="1" stop-color="white" stop-opacity="0"/>
</linearGradient>
<linearGradient id="paint3_linear_34_50" x1="727.536" y1="88.2992" x2="1620.54" y2="237.295" gradientUnits="userSpaceOnUse">
<stop stop-color="white"/>
<stop offset="1" stop-color="white" stop-opacity="0"/>
</linearGradient>
<linearGradient id="paint4_linear_34_50" x1="-76.1312" y1="88.2992" x2="816.874" y2="237.295" gradientUnits="userSpaceOnUse">
<stop stop-color="white"/>
<stop offset="1" stop-color="white" stop-opacity="0"/>
</linearGradient>
<linearGradient id="paint5_linear_34_50" x1="1996.13" y1="364.701" x2="1103.13" y2="215.705" gradientUnits="userSpaceOnUse">
<stop stop-color="white"/>
<stop offset="1" stop-color="white" stop-opacity="0"/>
</linearGradient>
</defs>
</svg>
