<svg width="45" height="45" viewBox="0 0 45 45" fill="none" xmlns="http://www.w3.org/2000/svg">
<path d="M14.5318 13.0284C14.0394 12.8238 13.4721 12.9367 13.0951 13.3151L10.2709 16.1485C9.75603 16.6649 9.75603 17.5024 10.2709 18.019C10.7857 18.5354 11.6205 18.5354 12.1353 18.019L12.7089 17.4435V30.8969C12.7738 32.65 15.2814 32.6487 15.3456 30.8969V14.2503C15.3457 13.7154 15.0245 13.2331 14.5318 13.0284Z" fill="white"/>
<path d="M36.6211 21.251H35.1152V19.7401C35.0503 17.9871 32.5427 17.9884 32.4785 19.7401V21.251H30.9727C29.2253 21.3161 29.2266 23.8319 30.9727 23.8963H32.4785V25.4072C32.5434 27.1603 35.051 27.1589 35.1152 25.4072V23.8963H36.6211C38.3685 23.8313 38.3672 21.3154 36.6211 21.251Z" fill="white"/>
<path d="M22.5 12.7505C20.2124 12.7505 18.3574 14.6075 18.3574 16.9067V19.7401C18.3574 20.8017 18.7523 21.8019 19.4708 22.5737C18.7523 23.3455 18.3574 24.3456 18.3574 25.4072V28.2406C18.5576 33.7474 26.4422 33.7477 26.6426 28.2406V25.4072C26.6426 24.3456 26.2477 23.3454 25.5292 22.5737C26.2478 21.8018 26.6426 20.8017 26.6426 19.7401V16.9067C26.6426 14.6116 24.7917 12.7505 22.5 12.7505ZM24.0059 28.2405C23.933 30.2426 21.0669 30.2421 20.9941 28.2405V25.4071C21.0669 23.4051 23.9331 23.4055 24.0059 25.4071V28.2405ZM24.0059 19.7401C23.9331 21.7421 21.0669 21.7418 20.9941 19.7401V16.9067C21.067 14.9046 23.9331 14.9051 24.0059 16.9067V19.7401Z" fill="white"/>
<path d="M22.5 0C10.0934 0 0 10.1265 0 22.5737C1.13115 52.4795 43.8734 52.4714 45 22.5734C45 10.1264 34.9066 0 22.5 0ZM22.5 42.502C11.5473 42.502 2.63672 33.5622 2.63672 22.5737C3.63524 -3.82765 41.3687 -3.82042 42.3633 22.5739C42.3633 33.5622 33.4527 42.502 22.5 42.502Z" fill="white"/>
</svg>
