<svg width="1920" height="800" viewBox="0 0 1920 800" fill="none" xmlns="http://www.w3.org/2000/svg">
<mask id="mask0_2_259" style="mask-type:alpha" maskUnits="userSpaceOnUse" x="0" y="0" width="1920" height="800">
<rect width="1920" height="800" transform="matrix(1 0 0 -1 0 800)" fill="url(#paint0_linear_2_259)"/>
</mask>
<g mask="url(#mask0_2_259)">
<rect width="1920" height="800" transform="matrix(1 0 0 -1 0 800)" fill="url(#paint1_linear_2_259)"/>
<path opacity="0.1" fill-rule="evenodd" clip-rule="evenodd" d="M960 724.743C960 1058.52 668.58 1136.67 594.577 1151.13C588.774 1152.28 585.562 1152.99 580.013 1153.63C577.787 1153.89 572.491 1154 569.167 1154L300.424 1153.8C297.015 1153.8 285.719 1153.35 285.156 1153.32C274.141 1152.51 252.168 1150.51 224.026 1145.58C117.881 1127.24 -75.9294 1069.34 -97.057 889.577C-114.72 739.138 -50.4354 664.032 30.3003 563.627C95.3734 482.688 44.3854 362.929 43.991 361.802C45.6812 362.704 153.657 422.09 179.433 472.913C192.636 496.989 203.213 522.415 210.984 548.752C210.477 544.611 187.884 358.252 284.226 232.943C381.667 106.169 402.118 67.3198 403.949 2.49591C400.027 -52.5587 385.617 -106.356 361.497 -156C455.706 -96.2335 535.547 -16.3876 595.309 77.828C641.875 151.722 667.735 236.77 670.185 324.08C695.426 298.997 715.145 268.913 728.075 235.76C737.94 197.683 740.067 158.014 734.329 119.1L793.881 220.519C860.728 342.983 960 553.428 960 724.743Z" fill="#D75C1E"/>
<path opacity="0.1" fill-rule="evenodd" clip-rule="evenodd" d="M960 724.976C960 553.637 860.731 343.162 793.8 220.822L734.25 119.388C739.987 158.308 737.861 197.983 727.996 236.065C715.086 269.233 695.366 299.325 670.108 324.397C667.66 237.084 641.8 152.032 595.234 78.1386C570.978 41.4523 544.001 6.64134 514.528 -26C508.387 27.3654 482.415 70.8129 396.216 182.813C299.821 308.14 322.441 494.524 322.976 498.666C315.198 472.324 304.631 446.887 291.454 422.788C274.349 396.326 251.931 373.711 225.622 356.377C209.593 419.233 204.617 484.399 210.918 548.96C203.14 522.618 192.572 497.181 179.396 473.082C176.635 467.782 173.381 462.754 169.678 458.064C164.653 478.314 155.313 497.239 142.297 513.543C61.5634 613.962 -2.71931 689.08 14.9429 839.54C36.07 1019.33 229.848 1077.26 336.075 1095.58C358.843 1099.66 381.831 1102.41 404.921 1103.8L689.658 1104H689.827L693.432 1103.46C717.005 1099.57 740.253 1093.92 762.983 1086.56C860.534 1027.78 960 920.01 960 724.976Z" fill="#FF6600"/>
<path opacity="0.1" d="M690 943.609C690.169 816.43 579.082 645.467 579.082 645.467C581.901 664.633 580.858 684.17 576.015 702.925C569.658 719.243 559.969 734.051 547.568 746.399C546.341 703.418 533.631 661.553 510.764 625.169C481.409 578.754 442.167 539.424 395.851 510C400.256 549.592 399.043 589.61 392.249 628.862C372.778 719.869 311.607 763.512 236.536 844.313C205.022 880.485 160.143 950.967 170.526 1024.75C172.147 1036.6 175.072 1048.24 179.248 1059.45C183.681 1071 188.744 1082.3 194.414 1093.29C203.117 1110.34 216.012 1124.9 231.883 1135.58C247.755 1146.25 266.08 1152.71 285.13 1154.32C285.692 1154.32 296.975 1154.8 300.38 1154.8L568.783 1155C572.104 1155 577.394 1155 579.616 1154.63L581.08 1154.44C591.744 1150.52 689.775 1110.12 690 943.609Z" fill="#FF8300"/>
<path opacity="0.1" fill-rule="evenodd" clip-rule="evenodd" d="M579.233 645.019C582.052 664.167 581.009 683.688 576.167 702.426C569.816 718.749 560.127 733.561 547.723 745.911C546.493 702.947 533.785 661.1 510.922 624.728C506.308 617.767 501.638 611.144 496.855 605C471.956 678.584 415.827 721.167 348.529 793.595C317.019 829.781 272.144 900.208 282.525 973.961C282.779 975.793 283.369 978.667 284.298 982.415C293.125 1016.49 312.884 1046.73 340.538 1068.46C368.191 1090.19 402.206 1102.22 437.35 1102.7L501.047 1103.99H526.818C569.362 1104.38 610.344 1087.96 640.888 1058.3C671.431 1028.63 689.076 988.103 689.999 945.497V943.158C690.309 815.915 579.233 645.019 579.233 645.019Z" fill="#FFA511"/>
<g opacity="0.5">
<path d="M0 -7.99976H675.516L222.013 800H0V-7.99976Z" fill="url(#paint2_linear_2_259)"/>
<path d="M2097 800L1421.48 800L1874.99 -7.99989L2097 -7.99988L2097 800Z" fill="url(#paint3_linear_2_259)"/>
<path d="M1219.24 800L543.729 800L997.232 -7.99989L1219.24 -7.99988L1219.24 800Z" fill="url(#paint4_linear_2_259)"/>
<path d="M877.755 -8L1553.27 -7.99991L1099.77 800L877.755 800L877.755 -8Z" fill="url(#paint5_linear_2_259)"/>
</g>
<path d="M553.093 512.479C551.466 505.722 554.132 496.884 555.806 488.096C557.096 481.29 559.098 474.035 556.091 467.969C549.758 455.197 536.887 452.214 524.23 446.804C511.8 441.492 501.109 454.293 488.35 455.46C475.402 456.648 467.026 452.054 456.133 459.258C445.008 466.613 437.369 463.97 433.28 477.773C431.969 482.196 432.217 486.392 432.697 490.238C433.763 498.727 437.401 505.917 434.908 514.052C433.521 518.564 429.428 523.934 426.955 530.43C422.156 543.052 416.602 556.428 422.342 565.125C430.098 576.87 452.009 574.325 465.505 581.058C478.178 587.38 484.102 574.081 496.473 573.943C510.267 573.806 519.34 579.302 530.161 571.214M391.612 447.494C390.892 450.849 391.152 454.027 391.343 456.863C391.766 463.075 393.184 468.079 390.469 473.542C388.867 476.756 385.422 480.407 383.821 485.198C380.65 494.661 377.325 504.613 381.739 511.3C387.481 519.99 403.93 516.472 413.914 521.449C423.03 525.992 427.471 517.311 436.078 517.435C446.071 517.578 452.361 521.165 459.96 515.142C466.856 509.677 479.694 506.373 484.575 496.574C491.042 483.585 479.354 480.113 476.522 471.713C474.976 467.116 475.894 461.085 476.361 454.713C476.704 450.021 478.124 444.606 476.084 439.913M411.691 438.9C405.192 443.195 402.874 443.87 401.585 452.391C401.155 455.218 401.421 457.873 401.466 460.211C401.569 465.28 401.829 469.19 399.046 473.321C397.309 475.888 394.218 478.682 393.046 482.618C390.694 490.51 388.48 498.745 392.232 504.427C396.959 511.592 410.671 507.581 418.905 511.686C426.244 515.348 429.946 508.979 436.698 509.232C444.791 509.528 449.694 512.158 455.678 507.166C461.007 502.726 470.844 499.77 474.851 491.729C480.476 480.425 471.845 477.925 469.049 471.388C467.546 467.871 467.601 463.266 467.448 458.074C467.343 454.452 468.454 449.947 466.896 445.933M616.32 80.8393C694.78 119.965 790.196 112.784 835.287 181.052C881.804 251.485 763.487 376.378 768.729 460.632C773.812 542.298 903.781 583.181 864.675 661.68C825.569 740.178 696.119 757.399 627.884 802.512C557.486 849.052 497.008 808.161 412.788 813.403C331.163 818.488 297.761 916.96 219.294 877.833C140.834 838.707 17.8437 823.165 -27.2471 754.897C-73.7642 684.463 61.5094 541.895 56.2676 457.64C51.1869 375.968 -35.8584 310.632 3.2477 232.133C42.3538 153.635 115.092 196.757 183.333 151.647C253.732 105.106 305.484 141.882 389.697 136.637C471.327 131.561 537.86 41.7139 616.32 80.8393ZM224.285 868.07C147.575 829.816 27.3212 814.766 -16.7616 748.022C-46.4183 703.112 -0.606327 628.255 33.4767 558.747C51.6751 521.636 66.5691 486.083 64.8352 457.424C61.4645 402.217 19.7802 354.65 7.0471 305.138C1.38309 283.099 1.44997 260.675 13.2067 237.026C51.3748 160.271 122.351 202.305 189.042 158.216C257.831 112.74 308.411 148.645 390.698 143.513C470.469 138.534 535.496 50.7671 612.174 88.9793C688.859 127.194 782.036 120.288 826.08 187.057C846.392 217.858 834.539 259.283 815.684 303.014C792.404 357.117 758.382 414.771 761.239 460.286C766.268 540.075 893.199 580 854.933 656.821C816.701 733.562 690.247 750.425 623.579 794.513C554.797 840.015 495.697 800.085 413.389 805.187C333.633 810.148 300.97 906.307 224.285 868.07ZM229.276 858.306C154.32 820.934 36.7988 806.367 -6.2713 741.156C-35.2651 697.251 9.43071 624.102 42.699 556.173C60.4616 519.915 75.043 485.187 73.41 457.209C70.1929 403.302 29.5737 356.859 17.1655 308.499C11.6456 286.965 11.7036 265.049 23.1681 241.934C60.3961 166.931 129.604 207.873 194.753 164.802C261.932 120.389 311.34 155.424 391.704 150.398C469.611 145.529 533.125 59.8407 608.021 97.1396C682.93 134.443 773.876 127.815 816.876 193.079C836.708 223.194 825.14 263.67 806.764 306.373C784.1 359.219 750.931 415.519 753.758 459.958C758.725 537.853 882.617 576.819 845.184 651.96C807.835 726.939 684.369 743.448 619.272 786.521C552.098 830.989 494.392 792.018 413.984 796.968C336.098 801.798 304.183 895.662 229.276 858.306ZM234.266 848.544C161.068 812.046 46.2764 797.97 4.21437 734.282C-24.1165 691.382 19.47 619.943 51.9167 553.592C69.2434 518.186 83.5169 484.292 81.9802 456.986C78.9076 404.384 39.3671 359.07 27.2815 311.845C21.9057 290.816 21.9548 269.407 33.1273 246.827C69.4149 173.575 136.856 213.418 200.464 171.365C266.034 128.016 314.269 162.181 392.708 157.268C468.753 152.503 530.76 68.8945 603.872 105.287C677.002 141.67 765.714 135.327 807.666 199.092C827.019 228.522 815.736 268.049 797.832 309.722C775.789 361.319 743.478 416.253 746.261 459.61C751.188 535.634 872.04 573.648 835.446 647.111C798.967 720.323 678.488 736.479 614.965 778.53C549.407 821.96 493.088 783.946 414.583 788.76C338.568 793.459 307.392 885.01 234.266 848.544ZM239.257 838.78C167.816 803.157 55.7539 789.57 14.7045 727.416C-12.9635 685.521 29.5069 615.79 61.1389 551.018C78.0298 516.465 91.9953 483.406 90.548 456.769C87.62 405.472 49.1535 361.276 37.3882 315.194C32.1567 294.67 32.2037 273.771 43.0794 251.717C78.4269 180.215 144.102 218.961 206.166 177.932C270.133 135.648 317.19 168.941 393.705 164.134C467.889 159.473 528.387 77.9516 599.712 113.422C671.066 148.894 757.54 142.826 798.448 205.085C817.313 233.828 806.329 272.411 788.897 313.053C767.471 363.392 736.016 416.966 738.766 459.255C743.638 533.408 861.453 570.458 825.693 642.241C790.101 713.699 672.61 729.502 610.658 770.537C546.707 812.933 491.775 775.876 415.175 780.548C341.039 785.111 310.607 874.358 239.257 838.78ZM244.248 829.018C174.564 794.269 65.2315 781.172 25.1902 720.542C-1.81492 679.652 39.5393 611.628 70.3567 548.436C86.8139 514.729 100.469 482.511 99.1159 456.552C96.3415 406.556 58.9446 363.493 47.502 318.547C42.4145 298.528 42.4549 278.129 53.0363 256.617C87.4435 186.866 151.353 224.513 211.873 184.509C274.23 143.289 320.123 175.706 394.704 171.018C467.026 166.46 526.018 87.0191 595.558 121.583C665.131 156.142 749.373 150.351 789.241 211.114C807.626 239.171 796.927 276.807 779.973 316.426C759.169 365.511 728.57 417.724 731.276 458.932C736.094 531.187 850.869 567.285 815.951 637.383C781.235 707.077 666.741 722.521 606.359 762.541C544.026 803.899 490.479 767.805 415.776 772.332C343.509 776.771 313.823 863.707 244.248 829.018ZM249.241 819.248C181.314 785.373 74.7114 772.767 35.6781 713.66C9.34276 673.778 49.5809 607.462 79.5745 545.854C95.5959 512.999 108.996 481.617 107.686 456.329C105.164 407.635 68.7312 365.701 57.618 321.892C52.6747 302.378 52.7063 282.487 63.0024 261.512C96.4625 193.51 158.61 230.068 217.592 191.074C278.341 150.91 323.06 182.465 395.715 177.889C466.175 173.435 523.661 96.0746 591.41 129.73C659.207 163.378 741.218 157.865 780.034 217.12C797.939 244.492 787.445 281.144 771.043 319.767C750.757 367.547 721.113 418.448 723.786 458.586C728.558 528.966 840.294 564.106 806.206 632.531C772.365 700.467 660.867 715.554 602.059 754.551C541.333 794.875 489.18 759.741 416.385 764.118C345.981 768.424 317.031 853.054 249.241 819.248ZM254.225 809.483C188.052 776.49 84.1891 764.368 46.1616 706.792C20.4892 667.916 59.6089 603.314 88.7969 543.28C104.382 511.279 117.483 480.727 116.254 456.112C113.894 408.714 78.5246 367.911 67.7249 325.242C62.9258 306.233 62.9484 286.849 72.9524 266.409C105.472 200.158 165.854 235.617 223.285 197.647C282.424 158.546 325.971 189.23 396.703 184.76C465.302 180.41 521.278 105.137 587.245 137.879C653.267 170.616 733.042 165.371 770.816 223.137C788.237 249.814 778.019 285.523 762.109 323.121C742.419 369.637 713.658 419.187 716.287 458.244C721.014 526.744 829.703 560.93 796.457 627.671C763.492 693.842 654.989 708.577 597.745 746.557C538.636 785.843 487.86 751.67 416.97 755.905C348.444 760.081 320.247 842.403 254.225 809.483ZM259.216 799.719C194.8 767.601 93.6668 755.97 56.6474 699.917C31.6355 662.053 69.6482 599.154 98.0147 540.698C113.164 509.549 125.964 479.834 124.824 455.889C122.632 409.795 88.3112 370.118 77.841 328.587C73.186 310.083 73.2066 291.209 82.9139 271.295C114.494 206.795 173.116 241.158 228.996 204.209C286.526 166.172 328.9 195.987 397.707 191.629C464.442 187.39 518.914 114.19 583.092 146.016C647.332 177.84 724.875 172.873 761.605 229.134C778.545 255.125 768.598 289.881 753.175 326.453C734.087 371.707 706.196 419.902 708.786 457.887C713.46 524.511 819.112 557.731 786.697 622.798C754.615 687.207 649.099 701.589 593.429 738.547C535.927 776.799 486.547 743.578 417.56 747.677C350.916 751.734 323.454 831.756 259.216 799.719ZM264.207 789.956C201.548 758.712 103.144 747.571 67.1375 693.052C42.7885 656.192 79.6851 595.001 107.237 538.125C121.953 507.821 134.452 478.942 133.397 455.681C131.365 410.89 98.109 372.337 87.9591 331.949C83.4483 313.949 83.4599 295.582 92.8751 276.203C123.515 213.454 180.37 246.719 234.71 210.788C290.636 173.817 331.832 202.759 398.715 198.508C463.588 194.372 516.552 123.259 578.948 154.172C641.412 185.085 716.724 180.396 752.4 235.155C768.86 260.462 759.192 294.266 744.254 329.812C725.769 373.804 698.754 420.645 701.307 457.552C705.93 522.293 808.542 554.562 776.968 617.944C745.76 680.595 643.241 694.619 589.142 730.562C533.257 767.775 485.262 735.518 418.175 739.466C353.386 743.393 326.669 821.105 264.207 789.956ZM269.197 780.194C208.296 749.824 112.622 739.173 77.6233 686.177C53.9441 650.325 89.7176 590.84 116.455 535.543C130.735 506.092 142.933 478.05 141.96 455.455C140.096 411.969 107.896 374.544 98.0684 335.292C93.7017 317.798 93.7045 299.938 102.828 281.094C132.527 220.096 187.616 252.262 240.412 217.356C294.729 181.448 334.752 209.52 399.71 205.382C462.722 201.349 514.171 132.315 574.783 162.321C635.466 192.321 708.546 187.909 743.182 241.172C759.162 265.793 749.765 298.645 735.311 333.171C717.428 375.902 691.283 421.387 693.797 457.222C698.38 520.068 797.953 551.379 767.22 613.084C736.888 673.97 637.356 687.641 584.828 722.568C530.557 758.75 483.942 727.448 418.76 731.252C355.856 735.053 329.878 810.451 269.197 780.194ZM274.188 770.43C215.037 740.933 122.1 730.774 88.109 679.302C65.0927 644.455 99.757 586.68 125.67 532.967C139.515 504.369 151.413 477.156 150.528 455.238C148.831 413.057 117.682 376.751 108.175 338.642C103.953 321.652 103.947 304.3 112.787 285.986C141.546 226.739 194.867 257.814 246.121 223.925C298.828 189.081 337.681 216.276 400.714 212.25C461.871 208.324 511.807 141.368 570.637 170.461C629.546 199.543 700.386 195.413 733.977 247.171C749.471 271.104 740.352 303.005 726.391 336.507C709.111 377.976 683.842 422.108 686.318 456.864C690.839 517.839 787.371 548.198 757.471 608.223C728.015 667.344 631.478 680.664 580.523 714.569C527.862 749.71 482.639 719.374 419.362 723.036C358.328 726.706 333.093 799.8 274.188 770.43ZM279.181 760.661C221.786 732.038 131.582 722.362 98.6012 672.43C76.2478 638.589 109.796 582.52 134.895 530.387C148.303 502.642 159.901 476.266 159.105 455.017C157.568 414.138 127.482 378.964 118.298 341.99C114.226 325.508 114.211 308.663 122.753 290.881C150.571 233.385 202.126 263.362 251.839 230.491C302.936 196.71 340.624 223.037 401.724 219.122C461.02 215.3 509.447 150.431 566.488 178.608C623.615 206.777 692.223 202.925 724.768 253.184C739.781 276.432 730.936 307.372 717.459 339.855C700.781 380.062 676.381 422.839 678.819 456.523C683.286 515.622 776.782 545.016 747.721 603.362C719.147 660.728 625.597 673.695 576.215 706.577C525.169 740.687 481.333 711.308 419.954 714.825C360.798 718.366 336.302 789.147 279.181 760.661ZM284.172 750.898C228.532 723.156 141.059 713.963 109.087 665.555C87.3965 632.719 119.826 578.365 144.119 527.807C157.094 500.907 168.391 475.368 167.673 454.801C166.304 415.227 137.269 381.171 128.412 345.342C124.484 329.365 124.46 313.027 132.709 295.78C159.588 240.036 209.377 268.914 257.546 237.068C307.033 204.35 343.549 229.807 402.726 225.998C460.157 222.286 507.081 159.491 562.33 186.76C617.682 214.017 684.059 210.443 715.559 259.196C730.092 281.759 721.525 311.749 708.534 343.205C692.452 382.148 668.935 423.574 671.336 456.18C675.752 513.395 766.208 541.837 737.982 598.497C710.283 654.098 619.728 666.714 571.913 698.571C522.476 731.641 480.027 703.218 420.56 706.595C363.263 710.016 339.518 778.496 284.172 750.898ZM289.163 741.135C235.28 714.267 150.537 705.564 119.577 658.689C98.5497 626.858 129.87 574.215 153.342 525.234C165.881 499.187 176.876 474.484 176.247 454.586C175.046 416.317 147.067 383.39 138.525 348.694C134.742 333.222 134.71 317.391 142.666 300.68C168.605 246.686 216.627 274.466 263.253 243.644C311.137 211.992 346.474 236.576 403.725 232.881C459.295 229.273 504.71 168.564 558.179 194.913C611.756 221.26 675.894 217.961 706.347 265.215C720.394 287.091 712.105 316.129 699.605 346.569C684.125 384.25 661.478 424.32 663.839 455.854C668.204 511.186 755.621 538.67 728.233 593.659C701.411 647.496 613.85 659.76 567.606 690.602C519.786 722.633 478.721 695.174 421.152 698.406C365.733 701.676 342.726 767.842 289.163 741.135ZM294.147 731.369C242.02 705.376 160.007 697.164 130.056 651.813C109.698 620.989 139.895 570.051 162.552 522.649C174.655 497.455 185.352 473.582 184.811 454.36C183.769 417.394 156.849 385.588 148.634 352.037C144.995 337.07 144.954 321.747 152.621 305.563C177.621 253.314 223.882 280.004 268.959 250.198C315.234 219.61 349.398 243.324 404.726 239.734C458.435 236.23 502.343 177.602 554.021 203.042C605.816 228.475 667.723 225.454 697.131 271.203C710.698 292.393 702.68 320.479 690.666 349.892C675.788 386.311 653.947 425.035 656.342 455.483C660.543 508.948 745.032 535.465 718.479 588.766C692.538 640.848 607.967 652.752 563.294 682.578C517.081 713.576 477.41 687.076 421.74 690.163C368.204 693.329 345.939 757.198 294.147 731.369ZM299.138 721.607C248.768 696.488 169.485 688.765 140.542 644.938C120.847 615.12 149.928 565.889 171.77 520.067C183.437 495.725 193.833 472.689 193.374 454.135C192.502 418.466 166.635 387.796 158.744 355.38C155.249 340.918 155.173 326.087 162.58 310.456C186.535 259.907 231.132 285.556 274.668 256.768C319.335 227.236 352.325 250.087 405.728 246.61C457.575 243.21 499.974 186.669 549.87 211.196C599.89 235.718 659.558 232.972 687.926 277.225C701.013 297.729 693.274 324.864 681.745 353.251C667.47 388.408 646.499 425.776 648.854 455.153C652.995 506.74 734.455 532.293 708.739 583.924C683.674 634.24 602.098 645.793 558.991 674.595C514.395 704.555 476.102 679.016 422.345 681.956C370.674 684.989 349.155 746.547 299.138 721.607ZM304.128 711.844C255.516 687.599 178.969 680.369 151.032 638.072C132 609.259 159.972 561.739 180.99 517.501C192.224 494.005 202.316 471.812 201.946 453.927C201.235 419.561 176.426 390.012 168.862 358.741C165.511 344.784 165.426 330.46 172.541 315.364C195.549 266.564 238.387 291.118 280.38 263.354C323.437 234.885 355.254 256.866 406.734 253.495C456.719 250.198 497.612 195.738 545.719 219.349C593.956 242.959 651.4 240.492 678.717 283.237C691.324 303.056 683.856 329.238 672.813 356.599C659.141 390.494 639.037 426.513 641.362 454.814C645.445 504.515 723.871 529.119 698.997 579.066C674.806 627.624 596.226 638.819 554.69 666.606C511.702 695.531 474.801 670.845 422.944 673.747C373.135 676.539 352.363 735.894 304.128 711.844ZM309.119 702.081C262.261 678.718 188.447 671.971 161.517 631.198C143.148 603.39 170.004 557.577 190.208 514.919C201.005 492.275 210.799 470.912 210.514 453.711C209.968 420.656 186.217 392.229 178.969 362.092C175.762 348.64 175.669 334.823 182.491 320.262C204.552 273.21 245.631 296.667 286.082 269.921C327.529 242.516 358.177 263.62 407.729 260.369C455.852 257.176 495.232 204.794 541.561 227.501C588.023 250.199 643.229 248.008 669.505 289.257C681.625 308.388 674.436 333.619 663.886 359.956C650.816 392.589 631.582 427.253 633.87 454.475C637.893 502.297 713.289 525.939 689.248 574.205C665.94 621.001 590.341 631.84 550.386 658.607C509.014 686.494 473.493 662.762 423.546 665.531C375.607 668.192 355.579 725.243 309.119 702.081ZM314.112 692.311C269.012 669.822 197.927 663.565 172.003 624.323C154.304 597.523 180.041 553.424 199.432 512.339C209.794 490.548 219.287 470.021 219.085 453.487C218.706 421.737 196.006 394.43 189.085 365.437C186.022 352.49 185.922 339.173 192.453 325.148C213.567 279.845 252.886 302.206 291.794 276.484C331.638 250.145 361.107 270.376 408.726 267.236C454.999 264.158 492.872 213.856 537.413 235.648C582.095 257.426 635.067 255.519 660.296 295.269C671.936 313.715 665.018 337.993 654.952 363.31C642.478 394.68 624.12 427.99 626.375 454.142C630.338 500.087 702.709 522.774 679.502 569.36C657.07 614.392 584.465 624.88 546.074 650.629C506.31 677.482 472.178 654.7 424.134 657.333C378.072 659.842 358.788 714.589 314.112 692.311ZM319.103 682.548C275.752 660.931 207.405 655.167 182.496 617.451C165.459 591.655 190.08 549.265 208.657 509.759C218.583 488.82 227.774 469.13 227.661 453.266C227.443 422.819 205.806 396.642 199.208 368.785C196.289 356.342 196.18 343.533 202.419 330.042C222.585 286.488 260.143 307.76 297.509 283.056C335.743 257.78 364.047 277.144 409.736 274.107C454.135 271.129 490.501 222.907 533.259 243.786C576.166 264.653 626.9 263.021 651.085 301.266C662.247 319.02 655.604 342.354 646.025 366.644C634.152 396.752 616.662 428.714 618.883 453.78C622.787 497.839 692.127 519.571 669.753 564.477C648.195 607.75 578.587 617.881 541.769 642.607C503.622 668.422 470.876 646.597 424.73 649.085C380.546 651.488 362.003 703.938 319.103 682.548ZM324.094 672.785C282.5 652.043 216.882 646.768 192.979 610.583C176.605 585.793 200.111 545.11 217.872 507.183C227.363 487.097 236.255 468.237 236.229 453.049C236.179 423.907 215.591 398.856 209.314 372.134C206.54 360.197 206.422 347.896 212.375 334.942C231.595 293.136 267.4 313.314 303.218 289.626C339.843 265.414 366.974 283.907 410.738 280.983C453.275 278.108 488.132 231.974 529.102 251.937C570.233 271.893 618.735 270.539 641.873 307.285C652.549 324.351 646.184 346.734 637.098 370.001C625.828 398.847 609.207 429.453 611.395 453.45C615.239 495.631 681.548 516.406 660.015 559.627C639.334 601.136 572.72 610.915 537.473 634.627C500.933 659.408 469.578 638.533 425.341 640.888C383.011 643.139 365.21 693.292 324.094 672.785ZM329.078 663.02C289.241 643.152 226.353 638.367 203.465 603.708C187.754 579.923 210.15 540.95 227.088 504.608C236.144 485.368 244.733 467.351 244.788 452.837C244.905 424.999 225.375 401.07 219.419 375.491C216.789 364.059 216.655 352.262 222.326 339.839C240.598 299.782 274.644 318.864 308.918 296.2C343.94 273.054 369.901 290.67 411.739 287.859C452.415 285.088 485.765 241.034 524.95 260.091C564.3 279.133 610.57 278.058 632.664 313.298C642.859 329.679 636.766 351.109 628.166 373.349C617.498 400.933 601.747 430.184 603.898 453.102C607.689 493.406 670.961 513.217 650.259 554.764C630.461 594.511 566.789 603.868 533.152 626.63C498.177 650.302 468.253 630.453 425.919 632.672C385.483 634.792 368.425 682.641 329.078 663.02ZM334.068 653.257C295.986 634.27 235.83 629.969 213.95 596.833C198.909 574.056 220.109 536.756 236.305 502.025C244.887 483.618 253.214 466.458 253.358 452.613C253.635 426.078 235.161 403.278 229.535 378.837C227.049 367.91 226.906 356.62 232.284 344.732C249.612 306.417 281.896 324.409 314.627 302.77C348.032 280.685 372.819 297.438 412.734 294.733C451.554 292.068 483.389 250.099 520.788 268.233C558.362 286.365 602.394 285.564 623.441 319.306C633.156 335.001 627.335 355.478 619.225 376.701C609.16 403.024 594.276 430.925 596.397 452.767C600.127 491.193 660.368 510.047 640.508 549.91C621.584 587.899 560.904 596.889 528.844 618.638C495.479 641.27 466.95 622.379 426.52 624.456C387.948 626.442 371.634 671.987 334.068 653.257ZM339.059 643.494C302.734 625.382 245.308 621.57 224.434 589.965C210.056 568.193 230.139 532.601 245.521 499.45C253.667 481.895 261.693 465.571 261.926 452.397C262.368 427.173 244.955 405.487 239.649 382.189C237.307 371.767 237.156 360.985 242.242 349.631C258.622 313.065 289.147 329.962 320.337 309.34C352.138 288.32 375.748 304.194 413.738 301.602C450.697 299.041 481.025 259.152 516.639 276.38C552.432 293.598 594.239 293.078 614.241 325.314C623.47 340.321 617.933 359.85 610.302 380.044C600.84 405.105 586.825 431.651 588.909 452.414C592.582 488.955 649.791 506.853 630.764 545.036C612.716 581.26 555.03 589.899 524.542 610.632C492.786 632.223 465.644 614.29 427.117 616.231C390.421 618.095 374.85 661.336 339.059 643.494ZM344.052 633.724C309.484 616.486 254.788 613.165 234.928 583.086C221.213 562.319 240.181 528.435 254.754 496.865C262.465 480.163 270.189 464.676 270.505 452.169C271.115 428.25 254.757 407.693 249.767 385.527C247.569 375.61 247.409 365.336 252.21 354.519C267.643 319.702 296.406 335.509 326.055 315.905C356.246 295.949 378.684 310.952 414.748 308.474C449.843 306.023 478.668 268.208 512.491 284.527C546.508 300.834 586.143 300.55 605.032 331.326C613.81 345.628 608.515 364.224 601.377 383.394C592.515 407.2 579.372 432.384 581.424 452.077C585.036 486.739 639.213 503.682 621.026 540.187C603.861 574.648 549.157 582.932 520.241 602.643C490.102 623.196 464.34 606.217 427.716 608.022C392.895 609.741 378.065 650.685 344.052 633.724ZM349.043 623.961C316.232 607.598 264.266 604.766 245.412 576.218C232.36 556.457 250.211 524.28 263.97 494.29C271.244 478.44 278.67 463.783 279.071 451.959C279.841 429.343 264.541 409.907 259.878 388.886C257.832 379.477 257.656 369.707 262.167 359.419C276.653 326.35 303.657 341.061 331.762 322.482C360.346 303.582 381.609 317.722 415.75 315.35C448.984 313.003 476.292 277.272 508.342 292.674C540.584 308.07 577.983 308.054 595.823 337.339C604.121 350.955 599.097 368.598 592.445 386.742C584.178 409.284 571.91 433.121 573.927 451.729C577.479 484.512 628.627 500.492 611.28 535.319C594.989 568.023 543.274 575.946 515.937 594.644C487.408 614.156 463.039 598.136 428.318 599.805C395.36 601.391 381.274 640.031 349.043 623.961ZM354.034 614.198C322.98 598.709 273.75 596.37 255.904 569.346C243.515 550.589 260.248 520.127 273.194 491.71C280.028 476.703 287.157 462.892 287.648 451.737C288.583 430.433 274.3 412.128 270.001 392.234C268.074 383.336 267.914 374.067 272.132 364.313C285.672 332.993 310.916 346.609 337.48 329.047C364.454 311.211 384.552 324.483 416.76 322.221C448.133 319.978 473.934 286.328 504.193 300.82C534.655 315.297 569.827 315.568 586.622 343.347C594.441 356.278 589.693 372.976 583.527 390.094C575.86 411.381 564.464 433.856 566.448 451.394C569.947 482.302 618.056 497.322 601.542 530.47C586.127 561.409 537.409 568.974 511.643 586.656C484.721 605.135 461.742 590.065 428.926 591.592C397.832 593.044 384.487 629.387 354.034 614.198ZM359.025 604.435C329.725 589.828 283.227 587.972 266.39 562.471C254.67 544.722 270.28 515.965 282.41 489.135C288.808 474.981 295.636 462.006 296.215 451.521C297.309 431.526 284.087 414.336 280.108 395.584C278.324 387.191 278.156 378.429 282.082 369.211C294.674 339.64 318.166 352.161 343.179 335.621C368.544 318.849 387.47 331.251 417.755 329.095C447.266 326.955 471.559 295.393 500.035 308.972C528.722 322.537 561.656 323.084 577.404 349.364C584.742 361.61 580.266 377.355 574.586 393.447C567.522 413.472 556.995 434.591 558.942 451.051C562.38 480.08 607.461 494.138 591.786 525.607C577.252 554.791 531.517 561.993 507.329 578.663C482.017 596.1 460.431 581.99 429.518 583.38C400.297 584.695 387.696 618.734 359.025 604.435ZM364.015 594.672C336.473 580.939 292.705 579.573 276.873 555.603C265.816 538.86 280.31 511.81 291.625 486.559C297.587 473.258 304.112 461.127 304.777 451.302C306.035 432.619 293.864 416.548 290.215 398.934C288.575 391.046 288.398 382.792 292.032 374.108C303.677 346.286 325.41 357.711 348.879 342.196C372.641 326.489 390.388 338.019 418.747 335.976C446.396 333.94 469.183 304.457 495.87 317.121C522.775 329.773 553.484 330.599 568.188 355.374C575.046 366.935 570.841 381.727 565.654 396.794C559.19 415.565 549.533 435.328 551.45 450.712C554.828 477.862 596.877 490.964 582.037 520.746C568.379 548.165 525.639 555.017 503.015 570.668C479.313 587.066 459.114 573.912 430.103 575.167C402.769 576.348 390.911 608.083 364.015 594.672ZM368.999 584.906C343.207 572.046 302.178 571.165 287.359 548.728C276.965 532.99 290.343 507.648 300.843 483.977C306.369 471.528 312.593 460.233 313.345 451.085C314.768 433.713 303.655 418.764 300.329 402.286C298.833 394.903 298.647 387.156 301.999 379.002C312.696 352.929 332.668 363.265 354.598 348.761C376.75 334.117 393.327 344.77 419.76 342.84C445.548 340.908 466.828 313.506 491.731 325.263C516.861 337.004 545.333 338.099 558.988 361.382C565.362 372.248 561.437 386.105 556.739 400.139C550.874 417.655 542.089 436.056 543.969 450.361C547.294 475.635 586.306 487.771 572.304 515.883C559.523 541.537 519.77 548.035 498.726 562.667C476.634 578.023 457.829 565.829 430.716 566.939C405.234 567.998 394.12 597.429 368.999 584.906ZM373.992 575.137C349.957 563.151 311.658 562.76 297.844 541.854C288.113 527.121 300.375 503.487 310.061 481.395C315.153 469.792 321.073 459.341 321.914 450.862C323.497 434.8 313.444 420.965 310.444 405.632C309.093 398.754 308.898 391.514 311.957 383.895C321.708 359.57 339.92 368.81 360.307 355.331C380.849 341.751 396.253 351.533 420.762 349.716C444.685 347.895 464.436 322.619 487.573 333.415C510.902 344.298 537.169 345.617 549.772 367.392C555.665 377.573 552.012 390.478 547.8 403.485C542.536 419.746 534.62 436.791 536.463 450.017C539.729 473.406 575.708 484.593 562.541 511.018C550.634 534.914 513.877 541.055 494.405 554.671C473.922 568.987 456.505 557.749 431.301 558.726C407.706 559.651 397.335 586.778 373.992 575.137ZM378.983 565.374C356.705 554.262 321.135 554.361 308.337 534.981C299.276 521.255 310.414 499.327 319.292 478.817C323.942 468.064 329.573 458.461 330.492 450.64C332.232 435.888 323.244 423.177 320.56 408.977C319.354 402.604 319.149 395.871 321.917 388.788C330.725 366.221 347.173 374.355 366.016 361.9C384.948 349.384 399.18 358.296 421.763 356.592C443.825 354.874 462.067 331.685 483.424 341.561C504.971 351.531 529.006 353.128 540.57 373.407C545.983 382.902 542.606 394.863 538.88 406.844C534.216 421.85 527.172 437.533 528.984 449.683C532.19 471.193 565.14 481.417 552.813 506.164C541.789 528.298 508.015 534.076 490.113 546.676C471.239 559.959 455.217 549.673 431.91 550.512C410.178 551.304 400.544 576.125 378.983 565.374ZM383.974 555.611C363.45 545.38 330.613 545.963 318.82 528.113C310.422 515.393 320.442 495.179 328.505 476.248C332.719 466.348 338.047 457.589 339.057 450.431C340.96 436.997 333.029 425.391 330.672 412.336C329.609 406.468 329.396 400.243 331.873 393.687C339.735 372.869 354.423 379.907 371.725 368.47C389.047 357.017 402.107 365.06 422.767 363.461C442.968 361.847 459.701 340.746 479.269 349.706C499.041 358.765 520.844 360.639 531.356 379.411C536.289 388.22 533.181 399.235 529.943 410.183C525.879 423.933 519.705 438.261 521.481 449.332C524.633 468.966 554.545 478.232 543.057 501.301C532.909 521.67 502.13 527.097 485.799 538.682C468.541 550.926 453.9 541.595 432.504 542.294C412.643 542.955 403.76 565.474 383.974 555.611ZM388.965 545.848C370.198 536.492 340.091 537.564 329.306 521.239C321.571 509.523 330.475 491.017 337.723 473.666C341.501 464.619 346.518 456.7 347.627 450.207C349.684 438.096 342.815 427.598 340.788 415.681C339.869 410.318 339.654 404.603 341.833 398.58C348.754 379.513 361.68 385.462 377.434 375.04C393.153 364.653 405.041 371.825 423.769 370.337C442.108 368.827 457.327 349.804 475.118 357.86C493.108 366.005 512.679 368.158 522.144 385.43C526.598 393.554 523.766 403.625 521.016 413.54C517.55 426.042 512.25 439 513.995 448.995C517.092 466.76 543.97 475.054 533.315 496.443C524.041 515.054 496.259 520.123 481.501 530.686C465.853 541.889 452.605 533.517 433.106 534.078C415.116 534.607 406.966 554.827 388.965 545.848ZM393.956 536.085C376.946 527.603 349.568 529.166 339.799 514.366C332.726 503.656 340.514 486.858 346.948 471.086C350.29 462.891 355.003 455.816 356.195 449.99C358.401 439.193 352.608 429.808 350.892 419.038C350.118 414.18 349.894 408.972 351.787 403.486C357.761 386.168 368.929 391.021 383.138 381.623C397.248 372.299 407.964 378.602 424.768 377.22C441.252 375.816 454.956 358.877 470.958 366.018C487.172 373.252 504.513 375.682 512.931 391.456C516.904 398.895 514.348 408.022 512.079 416.901C509.209 428.162 504.79 439.753 506.492 448.667C509.528 464.553 533.374 471.891 523.559 491.602C515.169 508.452 490.367 513.164 477.18 522.712C463.14 532.882 451.281 525.46 433.684 525.884C417.588 526.26 410.182 544.176 393.956 536.085ZM398.947 526.322C383.694 518.714 359.053 520.769 350.282 507.498C343.873 497.793 350.542 482.709 356.163 468.51C359.072 461.162 363.477 454.943 364.763 449.773C367.114 440.304 362.393 432.022 361.006 422.39C360.376 418.037 360.143 413.336 361.744 408.386C366.776 392.825 376.179 396.573 388.848 388.193C401.35 379.926 410.893 385.358 425.769 384.096C440.392 382.796 452.589 367.937 466.809 374.165C481.248 380.488 496.35 383.194 503.724 397.462C507.21 404.213 504.935 412.405 503.155 420.251C500.88 430.271 497.337 440.486 499.009 448.324C501.992 462.333 522.801 468.706 513.82 486.737C506.305 501.822 484.498 506.183 472.882 514.715C460.452 523.844 449.987 517.382 434.292 517.671C420.06 517.913 413.397 533.525 398.947 526.322ZM452.418 556.235C440.677 550.383 421.498 553.411 414.748 543.197C409.671 535.505 414.108 523.836 418.1 512.796C420.137 507.153 423.913 502.644 425.398 498.774C428.011 491.974 425.47 485.881 424.733 478.529C424.398 475.188 424.14 471.5 425.159 467.612C428.315 455.562 434.182 457.104 443.763 450.774C453.045 444.633 460.249 448.357 471.272 447.282C482.169 446.219 491.353 435.499 502 439.904C512.881 444.403 523.511 447.668 528.802 458.928C531.329 464.309 529.612 470.638 528.795 476.39C527.723 483.962 525.926 491.399 527.523 497.08C530.404 507.346 545.132 511.793 537.826 526.459C532.068 538.023 516.238 541.671 507.767 548.166C498.561 555.223 490.877 550.676 478.985 550.678C468.496 550.674 463.317 561.668 452.418 556.235ZM455.319 507.166C448.842 503.936 437.859 508.436 434.138 502.802C431.057 498.128 432.161 491.603 433.684 485.286C434.427 482.205 437.14 480.252 439.03 478.345C441.834 475.523 442.778 472.73 442.996 468.804C443.095 466.971 442.834 464.828 442.961 462.524C443.341 455.773 443.868 453.983 448.816 450.711C453.276 447.763 456.958 448.867 462.207 448.124C467.527 447.374 472.191 442.895 477.466 444.568C483.02 446.318 486.93 450.446 489.096 457.184C490.167 460.511 489.424 464.14 489.932 466.663C490.75 470.728 491.53 473.852 492.968 476.28C495.75 480.962 501.313 482.479 496.512 492.107C493.381 498.384 486.536 500.995 482.776 504.404C478.404 508.371 474.894 506.7 468.702 506.252C463.841 505.898 460.876 509.938 455.319 507.166ZM433.158 503.984C428.438 501.627 420.185 506.618 417.472 502.508C415.051 498.846 415.067 494.038 415.75 489.284C416.071 487.06 418.364 485.889 420.449 484.702C423.237 483.117 425.431 481.509 425.953 478.728C426.203 477.402 425.94 475.768 425.761 473.995C425.256 469.013 423.962 466.107 427.369 463.852C430.218 461.967 432.731 462.195 436.052 461.571C439.503 460.923 442.67 458.52 446.161 459.286C449.948 460.12 451.593 464.537 452.733 469.761C453.314 472.407 453.048 475.152 453.846 476.575C455.485 479.497 456.962 481.146 458.322 482.506C461.135 485.308 463.575 485.869 459.615 493.813C457.365 498.334 453.524 500.612 451.321 502.978C448.573 505.932 446.453 505.234 442.147 504.608C439.168 504.18 436.939 505.867 433.158 503.984ZM470.958 474.88C479.944 479.358 480.385 474.919 475.91 483.91C471.435 492.9 473.173 493.646 464.19 489.162C461.224 487.688 455.704 493.161 454.003 490.584C452.245 487.927 451.216 484.843 451.013 481.652C450.822 478.565 460.633 479.989 462.114 477.024C463.589 474.057 456.548 467.074 459.123 465.372C461.779 463.614 464.862 462.584 468.051 462.381C471.128 462.195 467.992 473.406 470.958 474.88Z" stroke="url(#paint6_linear_2_259)" stroke-opacity="0.15" stroke-width="2" stroke-miterlimit="10"/>
<circle cx="1010.71" cy="469.705" r="364.337" fill="#F8D72F" fill-opacity="0.1"/>
<circle cx="1014.5" cy="473.5" r="469.5" stroke="#F8D72F" stroke-opacity="0.1" stroke-width="6"/>
<circle cx="1011.65" cy="468.756" r="287.485" fill="#F8D72F" fill-opacity="0.2"/>
<circle cx="1010.7" cy="469.705" r="229.608" fill="#F8D72F"/>
</g>
<defs>
<linearGradient id="paint0_linear_2_259" x1="960" y1="0" x2="960" y2="800" gradientUnits="userSpaceOnUse">
<stop stop-color="#FFC83E"/>
<stop offset="1" stop-color="#FF9F47"/>
</linearGradient>
<linearGradient id="paint1_linear_2_259" x1="1383.5" y1="315" x2="415" y2="-13.5" gradientUnits="userSpaceOnUse">
<stop stop-color="#FFC83E"/>
<stop offset="1" stop-color="#FF9F47"/>
</linearGradient>
<linearGradient id="paint2_linear_2_259" x1="1302.39" y1="634.094" x2="311.006" y2="529.231" gradientUnits="userSpaceOnUse">
<stop stop-color="white"/>
<stop offset="1" stop-color="white" stop-opacity="0"/>
</linearGradient>
<linearGradient id="paint3_linear_2_259" x1="794.606" y1="157.906" x2="1785.99" y2="262.769" gradientUnits="userSpaceOnUse">
<stop stop-color="white"/>
<stop offset="1" stop-color="white" stop-opacity="0"/>
</linearGradient>
<linearGradient id="paint4_linear_2_259" x1="-83.1495" y1="157.906" x2="908.239" y2="262.769" gradientUnits="userSpaceOnUse">
<stop stop-color="white"/>
<stop offset="1" stop-color="white" stop-opacity="0"/>
</linearGradient>
<linearGradient id="paint5_linear_2_259" x1="2180.15" y1="634.094" x2="1188.76" y2="529.231" gradientUnits="userSpaceOnUse">
<stop stop-color="white"/>
<stop offset="1" stop-color="white" stop-opacity="0"/>
</linearGradient>
<linearGradient id="paint6_linear_2_259" x1="712" y1="643" x2="-505.5" y2="-270" gradientUnits="userSpaceOnUse">
<stop stop-color="#D2E5F1"/>
<stop offset="1" stop-color="#D2E5F1" stop-opacity="0"/>
</linearGradient>
</defs>
</svg>
