<svg width="56" height="56" viewBox="0 0 56 56" fill="none" xmlns="http://www.w3.org/2000/svg">
<path fill-rule="evenodd" clip-rule="evenodd" d="M49.9497 37.3485C49.9497 51.1712 37.8805 54.4075 34.8157 55.006C34.5754 55.0538 34.4424 55.083 34.2125 55.1098C34.1204 55.1203 33.901 55.125 33.7634 55.125L22.6334 55.1168C22.4922 55.1168 22.0244 55.0982 22.001 55.097C21.5449 55.0632 20.6349 54.9803 19.4694 54.7762C15.0734 54.0167 7.04669 51.6192 6.17169 44.1747C5.44019 37.9447 8.10252 34.8343 11.4462 30.6763C14.1412 27.3245 12.0295 22.365 12.0132 22.3183C12.0832 22.3557 16.555 24.815 17.6225 26.9197C18.1693 27.9167 18.6074 28.9697 18.9292 30.0603C18.9082 29.8888 17.9725 22.1713 21.9625 16.982C25.998 11.732 26.845 10.1232 26.9209 7.43866C26.7584 5.15873 26.1616 2.93087 25.1627 0.875C29.0644 3.35006 32.371 6.65666 34.846 10.5583C36.7746 13.6184 37.8455 17.1405 37.947 20.7562C38.9924 19.7174 39.809 18.4716 40.3445 17.0987C40.7531 15.5218 40.8411 13.879 40.6035 12.2675L43.0699 16.4675C45.8384 21.539 49.9497 30.254 49.9497 37.3485Z" fill="#D75C1E"/>
<path fill-rule="evenodd" clip-rule="evenodd" d="M49.9496 37.3485C49.9496 30.254 45.8383 21.539 43.0663 16.4733L40.6 12.2733C40.8376 13.8848 40.7495 15.5276 40.341 17.1045C39.8063 18.4778 38.9895 19.7238 37.9435 20.762C37.8421 17.1466 36.7711 13.6249 34.8425 10.5653C33.8379 9.04625 32.7206 7.60485 31.5 6.2533C31.2456 8.46296 30.17 10.262 26.6 14.8995C22.6076 20.0888 23.5445 27.8063 23.5666 27.9778C23.2445 26.8871 22.8069 25.8338 22.2611 24.836C21.5527 23.7403 20.6242 22.8039 19.5346 22.0861C18.8708 24.6888 18.6647 27.387 18.9256 30.0603C18.6035 28.9696 18.1659 27.9163 17.6201 26.9185C17.5058 26.699 17.371 26.4908 17.2176 26.2966C17.0095 27.1351 16.6227 27.9187 16.0836 28.5938C12.74 32.7518 10.0776 35.8621 10.8091 42.0921C11.6841 49.5366 19.7096 51.9353 24.1091 52.6936C25.0521 52.8628 26.0042 52.9766 26.9605 53.0343L38.7531 53.0425H38.7601L38.9095 53.0203C39.8858 52.8591 40.8486 52.6251 41.79 52.3203C45.8302 49.8866 49.9496 45.4241 49.9496 37.3485Z" fill="#FF6600"/>
<path d="M38.7893 46.3785C38.7963 41.1157 34.1903 34.041 34.1903 34.041C34.3072 34.8341 34.264 35.6426 34.0632 36.4187C33.7996 37.094 33.3978 37.7067 32.8837 38.2177C32.8328 36.4391 32.3058 34.7067 31.3577 33.201C30.1405 31.2803 28.5134 29.6528 26.593 28.4352C26.7756 30.0736 26.7254 31.7296 26.4437 33.3538C25.6363 37.1198 23.1 38.9258 19.9873 42.2695C18.6807 43.7663 16.8198 46.683 17.2503 49.7362C17.3176 50.2268 17.4388 50.7084 17.612 51.1723C17.7958 51.6502 18.0057 52.1176 18.2408 52.5723C18.6016 53.2782 19.1363 53.8804 19.7944 54.3224C20.4525 54.7643 21.2123 55.0313 22.0022 55.0982C22.0255 55.0982 22.4933 55.118 22.6345 55.118L33.7633 55.1262C33.901 55.1262 34.1203 55.1262 34.2125 55.111L34.2731 55.1028C34.7153 54.9407 38.78 53.2688 38.7893 46.3785Z" fill="#FF8300"/>
<path fill-rule="evenodd" clip-rule="evenodd" d="M34.1903 34.0409C34.3072 34.8336 34.264 35.6417 34.0632 36.4174C33.7998 37.0932 33.3981 37.7064 32.8837 38.2176C32.8327 36.439 32.3057 34.7067 31.3577 33.2009C31.1663 32.9128 30.9727 32.6386 30.7743 32.3843C29.7418 35.4304 27.4143 37.1933 24.6237 40.1916C23.317 41.6896 21.4562 44.6051 21.8867 47.6583C21.8972 47.7341 21.9217 47.8531 21.9602 48.0083C22.3262 49.4191 23.1456 50.6705 24.2923 51.5702C25.439 52.4698 26.8495 52.9678 28.3068 52.9876L30.9482 53.0413H32.0168C33.781 53.0573 35.4804 52.3777 36.747 51.1496C38.0135 49.9214 38.7452 48.2437 38.7835 46.4799V46.3831C38.7963 41.1156 34.1903 34.0409 34.1903 34.0409Z" fill="#FFA511"/>
</svg>
