<svg width="82" height="82" viewBox="0 0 82 82" fill="none" xmlns="http://www.w3.org/2000/svg">
<g filter="url(#filter0_b_3445_3)">
<path d="M50.8322 15.3639H81.2093L15.1886 81.3846L15.1886 51.5L50.8322 15.3639Z" fill="#FA5914"/>
</g>
<path d="M34.0306 54.5172C33.9646 54.5832 33.8854 54.6162 33.793 54.6162C33.7006 54.6162 33.6214 54.5832 33.5554 54.5172L27.1108 48.0726C27.0382 48 27.0019 47.9175 27.0019 47.8251C27.0019 47.7327 27.0349 47.6535 27.1009 47.5875L29.754 44.9345C30.2688 44.4197 30.8 44.0534 31.3478 43.8356C31.889 43.6112 32.4301 43.5584 32.9713 43.6772C33.5059 43.7894 34.0174 44.0897 34.5057 44.5781C35.0007 45.0731 35.3043 45.5878 35.4165 46.1224C35.5221 46.6504 35.4627 47.1849 35.2383 47.7261C35.0139 48.2673 34.6443 48.7953 34.1296 49.31L32.6545 50.7851L34.971 53.1015C35.037 53.1675 35.07 53.2467 35.07 53.3391C35.0766 53.4249 35.0436 53.5041 34.971 53.5767L34.0306 54.5172ZM31.5359 49.706L32.9812 48.2607C33.364 47.8779 33.5686 47.4951 33.595 47.1123C33.6148 46.723 33.4465 46.3501 33.0901 45.9937C32.7601 45.6637 32.4004 45.4954 32.0111 45.4888C31.6151 45.4756 31.2125 45.6736 30.8033 46.0828L29.358 47.5281L31.5359 49.706ZM40.5561 47.9916C40.4901 48.0576 40.4109 48.0906 40.3185 48.0906C40.2261 48.0906 40.1469 48.0576 40.0809 47.9916L33.6364 41.5471C33.5638 41.4745 33.5275 41.392 33.5275 41.2996C33.5275 41.2072 33.5605 41.128 33.6265 41.062L36.1904 38.498C36.989 37.6994 37.804 37.254 38.6356 37.1616C39.4672 37.0692 40.236 37.3761 40.9422 38.0822C41.4306 38.5706 41.7144 39.0986 41.7935 39.6661C41.8793 40.2271 41.7935 40.7815 41.5362 41.3293L45.5059 42.4083C45.5653 42.4281 45.6115 42.4545 45.6444 42.4875C45.7038 42.5469 45.7302 42.6195 45.7236 42.7053C45.7236 42.7845 45.6972 42.8505 45.6445 42.9033L44.7436 43.8041C44.6314 43.9163 44.5159 43.9724 44.3971 43.9724C44.2783 43.9724 44.1727 43.9592 44.0803 43.9328L40.4571 42.8637L39.0811 44.2397L41.457 46.6156C41.523 46.6816 41.556 46.7608 41.556 46.8532C41.5626 46.939 41.5296 47.0182 41.457 47.0908L40.5561 47.9916ZM37.9624 43.1211L39.3583 41.7252C39.7609 41.3227 39.972 40.9333 39.9918 40.5571C40.005 40.1743 39.8466 39.8179 39.5167 39.488C39.1867 39.158 38.8303 38.9996 38.4475 39.0128C38.0647 39.0128 37.6688 39.2174 37.2596 39.6266L35.8637 41.0224L37.9624 43.1211ZM49.722 39.0237C49.1347 39.6111 48.5341 40.0202 47.9203 40.2512C47.3 40.4756 46.6697 40.5053 46.0295 40.3403C45.3828 40.1687 44.7459 39.7892 44.1189 39.2019C43.8285 38.9247 43.5448 38.6475 43.2676 38.3703C42.9904 38.0931 42.7099 37.806 42.4261 37.5091C41.8453 36.8887 41.4758 36.2551 41.3174 35.6084C41.159 34.9616 41.1887 34.3247 41.4065 33.6978C41.6308 33.0642 42.0268 32.4636 42.5944 31.8961C43.162 31.3285 43.7625 30.9325 44.3961 30.7081C45.0297 30.4837 45.6698 30.4507 46.3166 30.6091C46.9634 30.7675 47.5969 31.1371 48.2173 31.7179C48.5209 31.995 48.8113 32.2722 49.0885 32.5494C49.3657 32.8266 49.6395 33.1137 49.9101 33.4107C50.4975 34.0376 50.877 34.6745 51.0486 35.3213C51.2136 35.9614 51.1806 36.595 50.9496 37.222C50.7186 37.8357 50.3094 38.4363 49.722 39.0237ZM48.5836 37.8852C49.0126 37.4563 49.237 36.9811 49.2568 36.4597C49.27 35.9317 48.9994 35.3708 48.445 34.7768C48.1678 34.4732 47.9071 34.1993 47.6629 33.9551C47.4122 33.7044 47.1383 33.4437 46.8413 33.1731C46.4453 32.8035 46.0625 32.5659 45.6929 32.4603C45.3234 32.3415 44.9769 32.3382 44.6535 32.4504C44.3235 32.556 44.0166 32.7507 43.7328 33.0345C43.4557 33.3117 43.2643 33.6153 43.1587 33.9452C43.0465 34.2686 43.0465 34.6184 43.1587 34.9946C43.2709 35.3576 43.5118 35.7371 43.8813 36.133C44.1585 36.4234 44.4225 36.694 44.6733 36.9448C44.9175 37.189 45.1881 37.453 45.4851 37.7368C46.079 38.2911 46.64 38.5617 47.168 38.5485C47.6893 38.5287 48.1612 38.3076 48.5836 37.8852Z" fill="white"/>
<defs>
<filter id="filter0_b_3445_3" x="3.1886" y="3.36389" width="90.0208" height="90.0206" filterUnits="userSpaceOnUse" color-interpolation-filters="sRGB">
<feFlood flood-opacity="0" result="BackgroundImageFix"/>
<feGaussianBlur in="BackgroundImage" stdDeviation="6"/>
<feComposite in2="SourceAlpha" operator="in" result="effect1_backgroundBlur_3445_3"/>
<feBlend mode="normal" in="SourceGraphic" in2="effect1_backgroundBlur_3445_3" result="shape"/>
</filter>
</defs>
</svg>
