<svg width="82" height="82" viewBox="0 0 82 82" fill="none" xmlns="http://www.w3.org/2000/svg">
<g filter="url(#filter0_b_3443_3)">
<path d="M51 15.3639H81.3772L15.3565 81.3846L15.3565 51.5L51 15.3639Z" fill="#FFC83E"/>
</g>
<path d="M33.0306 55.2243C32.9646 55.2903 32.8854 55.3233 32.793 55.3233C32.7006 55.3233 32.6214 55.2903 32.5554 55.2243L26.1009 48.7699C26.0349 48.7039 26.0019 48.6247 26.0019 48.5323C26.0019 48.4399 26.0349 48.3607 26.1009 48.2947L27.0216 47.374C27.0876 47.308 27.1668 47.275 27.2592 47.275C27.3516 47.275 27.4307 47.308 27.4967 47.374L33.0108 52.888L36.1489 49.7499C36.2215 49.6773 36.304 49.641 36.3964 49.641C36.4888 49.641 36.5713 49.6773 36.6439 49.7499L37.3368 50.4429C37.4028 50.5089 37.4358 50.5881 37.4358 50.6805C37.4358 50.7729 37.3995 50.8553 37.3269 50.9279L33.0306 55.2243ZM38.773 49.4818C38.707 49.5478 38.6279 49.5808 38.5355 49.5808C38.4431 49.5808 38.3639 49.5478 38.2979 49.4818L31.8434 43.0274C31.7774 42.9614 31.7444 42.8822 31.7444 42.7898C31.7444 42.6974 31.7774 42.6182 31.8434 42.5522L32.7739 41.6216C32.8465 41.549 32.9257 41.516 33.0115 41.5226C33.1039 41.5226 33.1831 41.5556 33.2491 41.6216L39.7036 48.0761C39.7696 48.1421 39.8026 48.2213 39.8026 48.3137C39.8092 48.3995 39.7762 48.4787 39.7036 48.5513L38.773 49.4818ZM43.2558 44.9991C43.1898 45.0651 43.1106 45.0981 43.0182 45.0981C42.9258 45.0981 42.8466 45.0651 42.7806 44.9991L37.3062 39.5247L35.4748 41.3561C35.4088 41.4221 35.3296 41.4551 35.2372 41.4551C35.1448 41.4551 35.0656 41.4221 34.9996 41.3561L34.2671 40.6235C34.1945 40.5509 34.1582 40.4684 34.1582 40.376C34.1582 40.2836 34.1912 40.2044 34.2572 40.1384L39.3059 35.0897C39.3785 35.0171 39.461 34.9808 39.5534 34.9808C39.6458 34.9808 39.7283 35.0171 39.8009 35.0897L40.5335 35.8222C40.5994 35.8882 40.6324 35.9674 40.6324 36.0598C40.6324 36.1522 40.5961 36.2347 40.5236 36.3073L38.702 38.1288L44.1765 43.6032C44.2425 43.6692 44.2755 43.7484 44.2755 43.8408C44.2755 43.9332 44.2392 44.0157 44.1666 44.0883L43.2558 44.9991ZM47.7251 40.5298C47.6591 40.5958 47.5799 40.6288 47.4875 40.6288C47.3951 40.6288 47.3159 40.5958 47.25 40.5298L40.8054 34.0852C40.7328 34.0126 40.6965 33.9301 40.6965 33.8377C40.6965 33.7453 40.7295 33.6661 40.7955 33.6001L45.1513 29.2443C45.2239 29.1717 45.3063 29.1354 45.3987 29.1354C45.4911 29.1354 45.5736 29.1717 45.6462 29.2443L46.2996 29.8977C46.3656 29.9637 46.3986 30.0429 46.3986 30.1353C46.3986 30.2277 46.3623 30.3102 46.2897 30.3828L43.0328 33.6397L44.785 35.3919L47.8241 32.3528C47.8967 32.2802 47.9792 32.2439 48.0716 32.2439C48.1574 32.2373 48.2366 32.2703 48.3092 32.3429L48.923 32.9566C48.9956 33.0292 49.0319 33.1117 49.0319 33.2041C49.0253 33.2899 48.9857 33.3691 48.9131 33.4417L45.8739 36.4809L47.6855 38.2925L51.0217 34.9563C51.0943 34.8837 51.1768 34.8475 51.2691 34.8475C51.3615 34.8475 51.444 34.8837 51.5166 34.9563L52.17 35.6097C52.236 35.6757 52.269 35.7549 52.269 35.8473C52.269 35.9397 52.2327 36.0222 52.1601 36.0948L47.7251 40.5298Z" fill="white"/>
<defs>
<filter id="filter0_b_3443_3" x="3.35645" y="3.36389" width="90.0208" height="90.0206" filterUnits="userSpaceOnUse" color-interpolation-filters="sRGB">
<feFlood flood-opacity="0" result="BackgroundImageFix"/>
<feGaussianBlur in="BackgroundImage" stdDeviation="6"/>
<feComposite in2="SourceAlpha" operator="in" result="effect1_backgroundBlur_3443_3"/>
<feBlend mode="normal" in="SourceGraphic" in2="effect1_backgroundBlur_3443_3" result="shape"/>
</filter>
</defs>
</svg>
