<svg width="82" height="82" viewBox="0 0 82 82" fill="none" xmlns="http://www.w3.org/2000/svg">
<g filter="url(#filter0_b_3445_2)">
<path d="M50.8322 15.3639H81.2093L15.1886 81.3846L15.1886 51.5L50.8322 15.3639Z" fill="#FF7B00"/>
</g>
<path d="M30.0128 58.78C29.9469 58.8461 29.8678 58.8792 29.7754 58.8794C29.683 58.8796 29.6037 58.8468 29.5376 58.7809L23.0804 52.349C23.0076 52.2766 22.9712 52.1941 22.971 52.1017C22.9708 52.0093 23.0036 51.9301 23.0695 51.864L25.9347 48.9875C26.4682 48.4518 26.9856 48.0977 27.4868 47.9252C27.9815 47.746 28.45 47.7187 28.8924 47.8432C29.3414 47.9611 29.7544 48.2078 30.1313 48.5832C30.3826 48.8335 30.558 49.1005 30.6576 49.3841C30.7571 49.6544 30.8005 49.915 30.7878 50.1659C30.7817 50.4101 30.7491 50.6279 30.6901 50.8194C31.066 50.6801 31.4916 50.6495 31.9669 50.7278C32.4423 50.8061 32.8717 51.0362 33.2552 51.4182C33.652 51.8134 33.9168 52.2551 34.0498 52.7432C34.1828 53.2313 34.164 53.7395 33.9934 54.2678C33.8162 54.7896 33.4708 55.3083 32.957 55.8241L30.0128 58.78ZM30.0976 56.592L31.7475 54.9355C32.1032 54.5785 32.2774 54.2118 32.27 53.8357C32.2561 53.4529 32.1102 53.1232 31.8325 52.8466C31.5416 52.5568 31.2047 52.4122 30.8219 52.413C30.4457 52.4071 30.0831 52.5794 29.734 52.9299L28.084 54.5864L30.0976 56.592ZM27.0524 53.5588L28.6036 52.0016C28.9527 51.6511 29.1302 51.3076 29.1362 50.971C29.1421 50.6212 29.0095 50.3112 28.7383 50.0412C28.4606 49.7646 28.1568 49.6398 27.8269 49.6668C27.4969 49.6807 27.1574 49.8628 26.8083 50.2133L25.2571 51.7706L27.0524 53.5588ZM36.0372 52.7318C35.9845 52.7847 35.9153 52.8145 35.8295 52.8213C35.7503 52.8215 35.6809 52.7919 35.6214 52.7326C35.595 52.7063 35.5718 52.67 35.5519 52.6239L31.5352 43.8608C31.4889 43.7751 31.4689 43.6827 31.4753 43.5837C31.4817 43.4715 31.5343 43.3658 31.6331 43.2666L32.71 42.1855C32.8088 42.0863 32.911 42.0366 33.0166 42.0364C33.1156 42.0296 33.2113 42.0459 33.3038 42.0853L42.0826 46.0674C42.1222 46.0937 42.1553 46.1201 42.1817 46.1464C42.2412 46.2057 42.2711 46.2749 42.2712 46.3541C42.2714 46.4333 42.2451 46.4994 42.1924 46.5523L41.3329 47.4152C41.2406 47.5078 41.1516 47.5575 41.0659 47.5643C40.9801 47.5578 40.9107 47.5415 40.8579 47.5152L39.1834 46.776L36.249 49.7219L36.9948 51.3935C37.0213 51.4462 37.0346 51.5188 37.0348 51.6112C37.035 51.6904 36.989 51.7763 36.8967 51.8688L36.0372 52.7318ZM35.4542 48.2386L37.6969 45.987L33.5057 44.0648L35.4542 48.2386ZM45.716 43.2132C45.1034 43.8282 44.5004 44.2551 43.9069 44.4938C43.3133 44.7194 42.7624 44.7964 42.2541 44.7248C41.7458 44.64 41.323 44.4428 40.9858 44.1333C40.9263 44.074 40.8964 44.0048 40.8963 43.9256C40.8961 43.8464 40.9257 43.777 40.985 43.7175L41.8643 42.8347C41.9499 42.7488 42.0323 42.7057 42.1115 42.7056C42.1907 42.6922 42.2732 42.6953 42.359 42.715C42.5242 42.8004 42.7256 42.8495 42.9632 42.8623C43.1942 42.8684 43.4449 42.8151 43.7152 42.7024C43.9922 42.5831 44.2789 42.3746 44.5753 42.077C45.0495 41.6009 45.3225 41.1681 45.3944 40.7786C45.4728 40.3825 45.3764 40.0494 45.1053 39.7793C44.9136 39.5883 44.6989 39.4996 44.4613 39.5133C44.2172 39.5204 43.9171 39.6101 43.561 39.7823C43.2049 39.9414 42.7599 40.1832 42.226 40.5076C41.613 40.885 41.0558 41.16 40.5546 41.3326C40.0533 41.492 39.5881 41.5292 39.159 41.4442C38.7364 41.3527 38.3268 41.1093 37.93 40.7141C37.5465 40.3321 37.308 39.8903 37.2146 39.389C37.1278 38.881 37.1895 38.3496 37.3996 37.7948C37.6163 37.2334 37.9914 36.6849 38.5249 36.1492C38.953 35.7194 39.3913 35.3985 39.8396 35.1864C40.2814 34.9677 40.7068 34.8448 41.116 34.8176C41.5185 34.7838 41.8848 34.8194 42.215 34.9243C42.5452 35.0161 42.816 35.1607 43.0276 35.3583C43.0805 35.411 43.1104 35.4802 43.1171 35.566C43.1239 35.6386 43.0943 35.708 43.0284 35.7741L42.1096 36.6966C42.0569 36.7495 41.991 36.7892 41.9119 36.8157C41.8327 36.8423 41.7403 36.8359 41.6346 36.7965C41.3901 36.632 41.0864 36.5864 40.7236 36.6597C40.3608 36.733 40.0081 36.9416 39.6656 37.2854C39.3099 37.6425 39.0895 37.996 39.0044 38.346C38.9193 38.6959 39.0156 39.0092 39.2933 39.2859C39.4785 39.4703 39.6866 39.5722 39.9176 39.5915C40.1486 39.5977 40.429 39.5278 40.7587 39.382C41.0949 39.2295 41.5136 39.0076 42.0146 38.7162C42.7001 38.2793 43.3033 37.9646 43.8243 37.7722C44.3453 37.5798 44.8171 37.5294 45.2397 37.621C45.6556 37.7059 46.0587 37.9427 46.4488 38.3313C46.8852 38.7661 47.1403 39.2572 47.214 39.8049C47.2876 40.3393 47.1963 40.9004 46.9401 41.4883C46.6839 42.0762 46.2758 42.6512 45.716 43.2132ZM49.7921 38.9227C49.7262 38.9888 49.6471 39.022 49.5547 39.0221C49.4623 39.0223 49.383 38.9895 49.3169 38.9236L42.8497 32.4819C42.7836 32.416 42.7505 32.3369 42.7503 32.2445C42.7501 32.1521 42.7829 32.0728 42.8488 32.0067L43.7775 31.0743C43.85 31.0016 43.9291 30.9684 44.0149 30.9748C44.1073 30.9747 44.1866 31.0075 44.2527 31.0734L50.7199 37.5151C50.786 37.581 50.8191 37.6601 50.8193 37.7525C50.8261 37.8383 50.7932 37.9176 50.7208 37.9903L49.7921 38.9227ZM55.2742 33.6173C54.6616 34.2323 54.0354 34.6493 53.3957 34.8684C52.7559 35.0742 52.1257 35.092 51.505 34.9216C50.8777 34.7446 50.2698 34.3895 49.6814 33.856C49.4037 33.5926 49.1094 33.3061 48.7987 32.9965C48.4879 32.6869 48.1936 32.3872 47.9158 32.0974C47.3867 31.5177 47.0324 30.9145 46.853 30.2879C46.6802 29.6547 46.6987 29.021 46.9087 28.3871C47.1186 27.7399 47.5265 27.1121 48.1325 26.5038C48.5804 26.0541 49.0417 25.71 49.5164 25.4715C49.9911 25.233 50.4594 25.0934 50.9213 25.0529C51.3766 25.0058 51.8123 25.0512 52.2283 25.189C52.6444 25.3267 53.0177 25.5537 53.3483 25.8698C53.4144 25.9225 53.4442 25.9917 53.4378 26.0775C53.438 26.1567 53.4084 26.2261 53.3491 26.2856L52.4105 27.2279C52.3381 27.3006 52.2623 27.3437 52.1831 27.357C52.0973 27.3638 52.0016 27.3343 51.8958 27.2685C51.354 26.9396 50.8753 26.825 50.4597 26.9249C50.0441 27.0247 49.6453 27.2663 49.2633 27.6499C48.822 28.0929 48.5953 28.5718 48.5831 29.0866C48.5643 29.5948 48.8293 30.1421 49.3783 30.7284C49.9007 31.2883 50.4562 31.8416 51.0446 32.3882C51.6331 32.9348 52.1847 33.201 52.6994 33.1868C53.2076 33.166 53.6823 32.9341 54.1236 32.4911C54.5056 32.1075 54.7457 31.7078 54.8439 31.2918C54.9355 30.8692 54.819 30.391 54.4946 29.8571C54.4218 29.745 54.3919 29.6494 54.4049 29.5702C54.418 29.4909 54.4607 29.415 54.5332 29.3422L55.4718 28.3999C55.5311 28.3404 55.6003 28.3106 55.6795 28.3104C55.7653 28.3036 55.8346 28.3332 55.8876 28.3991C56.205 28.7285 56.4334 29.1009 56.5728 29.5164C56.7122 29.9319 56.7626 30.3707 56.7239 30.8327C56.6786 31.2882 56.5376 31.7538 56.301 32.2294C56.0643 32.705 55.722 33.1677 55.2742 33.6173Z" fill="white"/>
<defs>
<filter id="filter0_b_3445_2" x="3.1886" y="3.36389" width="90.0208" height="90.0206" filterUnits="userSpaceOnUse" color-interpolation-filters="sRGB">
<feFlood flood-opacity="0" result="BackgroundImageFix"/>
<feGaussianBlur in="BackgroundImage" stdDeviation="6"/>
<feComposite in2="SourceAlpha" operator="in" result="effect1_backgroundBlur_3445_2"/>
<feBlend mode="normal" in="SourceGraphic" in2="effect1_backgroundBlur_3445_2" result="shape"/>
</filter>
</defs>
</svg>
