<svg width="9" height="10" viewBox="0 0 9 10" fill="none" xmlns="http://www.w3.org/2000/svg">
<path d="M1.64359 10C1.55523 10 1.4757 9.96667 1.40501 9.9C1.34315 9.83333 1.31222 9.74762 1.31222 9.64286V8.32857H0.33137C0.234168 8.32857 0.154639 8.29524 0.0927835 8.22857C0.0309278 8.1619 0 8.07619 0 7.97143V7.42857C0 7.32381 0.0309278 7.23809 0.0927835 7.17143C0.154639 7.10476 0.234168 7.07143 0.33137 7.07143H1.31222V6.34286H0.33137C0.234168 6.34286 0.154639 6.30952 0.0927835 6.24286C0.0309278 6.16667 0 6.08095 0 5.98571V4.91429C0 4.80952 0.0309278 4.72381 0.0927835 4.65714C0.154639 4.58095 0.234168 4.54286 0.33137 4.54286H1.31222V0.357143C1.31222 0.252381 1.34315 0.166667 1.40501 0.1C1.4757 0.0333335 1.55523 0 1.64359 0H5.36819C6.10162 0 6.73785 0.12381 7.27688 0.371429C7.82474 0.609524 8.2489 0.971429 8.54934 1.45714C8.84978 1.94286 9 2.55714 9 3.3C9 3.99524 8.84978 4.56667 8.54934 5.01429C8.2489 5.46191 7.82474 5.79524 7.27688 6.01429C6.73785 6.23333 6.10162 6.34286 5.36819 6.34286H3.77761V7.07143H5.55376C5.65096 7.07143 5.73049 7.10476 5.79234 7.17143C5.86303 7.23809 5.89838 7.32381 5.89838 7.42857V7.97143C5.89838 8.07619 5.86303 8.1619 5.79234 8.22857C5.73049 8.29524 5.65096 8.32857 5.55376 8.32857H3.77761V9.64286C3.77761 9.74762 3.74669 9.83333 3.68483 9.9C3.62298 9.96667 3.54345 10 3.44624 10H1.64359ZM3.73785 4.54286H5.30191C5.68189 4.54286 5.98233 4.4381 6.20324 4.22857C6.42415 4.01905 6.53461 3.7 6.53461 3.27143C6.53461 2.90952 6.43741 2.60476 6.243 2.35714C6.0486 2.10952 5.7349 1.98571 5.30191 1.98571H3.73785V4.54286Z" fill="#FF7B00"/>
</svg>
