<svg width="55" height="39" viewBox="0 0 55 39" fill="none" xmlns="http://www.w3.org/2000/svg">
<path d="M50.5286 39H4.47144C3.85418 39 3.35358 38.4952 3.35358 37.8729V35.3931H51.6464V37.8729C51.6464 38.4952 51.1458 39 50.5286 39Z" fill="#6DC54A"/>
<path d="M3.35358 35.3931H51.6464V37.1963H3.35358V35.3931Z" fill="#5DB33A"/>
<path d="M52.317 35.3931H2.68303C2.06577 35.3931 1.56517 34.8883 1.56517 34.2659V31.7862H53.4348V34.2659C53.4348 34.8883 52.9346 35.3931 52.317 35.3931Z" fill="#6DC54A"/>
<path d="M1.56517 31.7862H53.4348V33.5894H1.56517V31.7862Z" fill="#5DB33A"/>
<path d="M53.8821 31.7862H1.11786C0.500603 31.7862 0 31.2814 0 30.659V1.12714C0 0.504757 0.500603 0 1.11786 0H53.8821C54.4994 0 55 0.504757 55 1.12714V30.659C55 31.2814 54.4994 31.7862 53.8821 31.7862Z" fill="#ABDE97"/>
<path d="M52.9879 0V28.5173C52.9879 29.1397 52.4873 29.6444 51.8701 29.6444H0V30.659C0 31.2814 0.500603 31.7862 1.11786 31.7862H53.8821C54.4994 31.7862 55 31.2814 55 30.659V1.12714C55 0.504757 54.4994 0 53.8821 0L52.9879 0Z" fill="#82CD64"/>
<path d="M8.74775 27.9537C8.24505 27.9537 7.812 27.6131 7.67059 27.1261C7.25056 25.6783 6.08822 24.4403 4.63676 24.0329C4.14665 23.8954 3.80089 23.4558 3.80089 22.9425V8.85631C3.80089 8.33547 4.15672 7.89037 4.65691 7.76091C6.15158 7.37462 7.21279 6.19332 7.65507 4.64563C7.79396 4.15949 8.24589 3.83243 8.74733 3.83243H46.2527C46.7541 3.83243 47.206 4.15949 47.3449 4.64563C47.7868 6.19332 48.8484 7.37462 50.3431 7.76091C50.8433 7.89037 51.1991 8.33547 51.1991 8.85631V22.9425C51.1991 23.4558 50.8533 23.8954 50.3632 24.0333C48.9118 24.4403 47.7494 25.6787 47.3294 27.1261C47.188 27.6131 46.755 27.9537 46.2518 27.9537H8.74775Z" fill="#6DC54A"/>
<path d="M47.3294 27.1261C47.7515 25.6715 48.9231 24.4285 50.3842 24.0269C50.8672 23.8945 51.1991 23.4473 51.1991 22.9425V8.85631C51.1991 8.33547 50.8433 7.89037 50.3431 7.76091C48.8484 7.37462 47.7868 6.19332 47.3449 4.64563C47.206 4.15949 46.7541 3.83243 46.2527 3.83243H45.3518V4.3558C45.3518 6.64477 46.6735 8.75434 48.7637 9.64708C48.7796 9.65385 48.7955 9.66062 48.8115 9.66739C48.9025 9.70547 48.9634 9.7939 48.9634 9.89332V21.8928C48.9634 21.9927 48.903 22.0807 48.8115 22.1188C47.277 22.7593 46.0479 23.9986 45.4122 25.5463C45.3744 25.6381 45.2867 25.6995 45.1881 25.6995H6.96648C7.28035 26.1314 7.52289 26.6163 7.67101 27.1283C7.812 27.614 8.24589 27.9537 8.74817 27.9537H46.2523C46.755 27.9537 47.188 27.6127 47.3294 27.1261Z" fill="#5DB33A"/>
<path d="M35.1018 15.0475H33.8715C33.459 11.8722 30.76 9.41184 27.5 9.41184C24.24 9.41184 21.541 11.8722 21.1285 15.0475H19.8982C19.4354 15.0475 19.0598 15.4262 19.0598 15.8929C19.0598 16.36 19.4354 16.7382 19.8982 16.7382H21.1285C21.541 19.914 24.24 22.3743 27.5 22.3743C30.76 22.3743 33.459 19.914 33.8715 16.7382H35.1018C35.5646 16.7382 35.9402 16.36 35.9402 15.8929C35.9402 15.4262 35.5646 15.0475 35.1018 15.0475ZM27.5 20.6836C24.8803 20.6836 22.7491 18.5347 22.7491 15.8929C22.7491 13.2515 24.8803 11.1025 27.5 11.1025C30.1197 11.1025 32.2509 13.2515 32.2509 15.8929C32.2509 18.5347 30.1197 20.6836 27.5 20.6836Z" fill="#5DB33A"/>
<path d="M43.1504 15.0475H38.9022C38.4394 15.0475 38.0639 15.4262 38.0639 15.8929C38.0639 16.36 38.4394 16.7382 38.9022 16.7382H43.1504C43.6133 16.7382 43.9888 16.36 43.9888 15.8929C43.9888 15.4262 43.6137 15.0475 43.1504 15.0475Z" fill="#5DB33A"/>
<path d="M16.0978 15.0475H11.8496C11.3867 15.0475 11.0112 15.4262 11.0112 15.8929C11.0112 16.36 11.3863 16.7382 11.8496 16.7382H16.0978C16.5606 16.7382 16.9361 16.36 16.9361 15.8929C16.9361 15.4262 16.5606 15.0475 16.0978 15.0475Z" fill="#5DB33A"/>
</svg>
