<svg width="800" height="1442" viewBox="0 0 800 1442" fill="none" xmlns="http://www.w3.org/2000/svg">
<mask id="mask0_104_771" style="mask-type:alpha" maskUnits="userSpaceOnUse" x="0" y="0" width="800" height="1442">
<rect width="800" height="1442" fill="url(#paint0_linear_104_771)"/>
</mask>
<g mask="url(#mask0_104_771)">
<rect width="800" height="1442" fill="url(#paint1_linear_104_771)"/>
<g opacity="0.25">
<path d="M425.855 777.956L-315.376 777.956L182.244 0.000194885L425.855 0.000208974L425.855 777.956Z" fill="url(#paint2_linear_104_771)"/>
<path d="M51.145 0L792.376 9.93341e-05L294.756 777.956L51.1448 777.956L51.145 0Z" fill="url(#paint3_linear_104_771)"/>
</g>
<path opacity="0.1" fill-rule="evenodd" clip-rule="evenodd" d="M426 1062.07C426 1356.81 134.58 1425.82 60.5767 1438.58C54.7736 1439.6 51.5623 1440.22 46.0128 1440.79C43.7873 1441.02 38.4913 1441.12 35.1673 1441.12L-233.576 1440.94C-236.985 1440.94 -248.281 1440.54 -248.844 1440.52C-259.859 1439.8 -281.832 1438.03 -309.974 1433.68C-416.119 1417.48 -609.929 1366.36 -631.057 1207.62C-648.72 1074.78 -584.435 1008.46 -503.7 919.795C-438.627 848.324 -489.615 742.572 -490.009 741.577C-488.319 742.373 -380.343 794.813 -354.567 839.691C-341.364 860.952 -330.787 883.404 -323.016 906.66C-323.523 903.003 -346.116 738.442 -249.774 627.789C-152.333 515.843 -131.882 481.538 -130.051 424.296C-133.973 375.68 -148.383 328.175 -172.503 284.338C-78.2939 337.114 1.54662 407.621 61.3092 490.817C107.875 556.068 133.735 631.168 136.185 708.266C161.426 686.117 181.145 659.552 194.075 630.277C203.94 596.653 206.067 561.624 200.329 527.261L259.881 616.819C326.728 724.959 426 910.79 426 1062.07V1062.07Z" fill="#D75C1E"/>
<path opacity="0.1" fill-rule="evenodd" clip-rule="evenodd" d="M426 1062.27C426 910.974 326.731 725.117 259.8 617.086L200.25 527.516C205.987 561.883 203.861 596.918 193.996 630.546C181.086 659.835 161.366 686.407 136.108 708.547C133.66 631.445 107.8 556.342 61.2337 491.091C36.9784 458.696 10.0006 427.956 -19.4718 399.133C-25.6127 446.256 -51.585 484.622 -137.784 583.522C-234.179 694.191 -211.559 858.775 -211.024 862.433C-218.802 839.171 -229.369 816.71 -242.546 795.429C-259.651 772.063 -282.069 752.093 -308.378 736.786C-324.407 792.29 -329.383 849.834 -323.082 906.844C-330.86 883.583 -341.428 861.121 -354.604 839.841C-357.365 835.161 -360.619 830.721 -364.322 826.58C-369.347 844.461 -378.687 861.172 -391.703 875.569C-472.437 964.243 -536.719 1030.57 -519.057 1163.44C-497.93 1322.2 -304.152 1373.35 -197.925 1389.53C-175.157 1393.13 -152.169 1395.56 -129.079 1396.79L155.658 1396.97H155.827L159.432 1396.49C183.005 1393.05 206.253 1388.06 228.983 1381.56C326.534 1329.66 426 1234.5 426 1062.27Z" fill="#FF6600"/>
<path opacity="0.1" d="M156 1255.33C156.169 1143.03 45.0818 992.064 45.0818 992.064C47.9012 1008.99 46.8584 1026.24 42.0148 1042.8C35.6583 1057.21 25.9689 1070.29 13.5678 1081.19C12.3409 1043.24 -0.368585 1006.27 -23.236 974.139C-52.5906 933.153 -91.8335 898.423 -138.149 872.441C-133.744 907.402 -134.957 942.74 -141.751 977.4C-161.222 1057.76 -222.393 1096.3 -297.464 1167.65C-328.978 1199.59 -373.857 1261.83 -363.474 1326.98C-361.853 1337.45 -358.928 1347.73 -354.752 1357.63C-350.319 1367.83 -345.256 1377.8 -339.586 1387.5C-330.883 1402.57 -317.988 1415.42 -302.117 1424.85C-286.245 1434.28 -267.92 1439.97 -248.87 1441.4C-248.308 1441.4 -237.025 1441.83 -233.62 1441.83L34.7835 1442C38.1037 1442 43.3936 1442 45.6164 1441.68L47.0796 1441.5C57.7437 1438.04 155.775 1402.37 156 1255.33V1255.33Z" fill="#FF8300"/>
<path opacity="0.1" fill-rule="evenodd" clip-rule="evenodd" d="M45.2333 991.668C48.0517 1008.58 47.009 1025.81 42.1666 1042.36C35.8157 1056.77 26.1269 1069.85 13.7225 1080.76C12.493 1042.82 -0.215003 1005.87 -23.0776 973.75C-27.6917 967.603 -32.362 961.755 -37.1449 956.33C-62.0441 1021.31 -118.173 1058.91 -185.471 1122.87C-216.981 1154.82 -261.856 1217.01 -251.475 1282.14C-251.221 1283.75 -250.631 1286.29 -249.702 1289.6C-240.875 1319.69 -221.116 1346.39 -193.462 1365.58C-165.809 1384.77 -131.794 1395.39 -96.6497 1395.81L-32.9528 1396.96H-7.1815C35.3616 1397.3 76.3442 1382.8 106.888 1356.61C137.431 1330.41 155.076 1294.62 155.999 1257V1254.94C156.309 1142.58 45.2333 991.668 45.2333 991.668V991.668Z" fill="#FFA511"/>
</g>
<defs>
<linearGradient id="paint0_linear_104_771" x1="745.833" y1="1014.3" x2="70.8603" y2="943.095" gradientUnits="userSpaceOnUse">
<stop stop-color="#FFC83E"/>
<stop offset="1" stop-color="#FF9F47"/>
</linearGradient>
<linearGradient id="paint1_linear_104_771" x1="745.833" y1="1014.3" x2="70.8603" y2="943.095" gradientUnits="userSpaceOnUse">
<stop stop-color="#FFC83E"/>
<stop offset="1" stop-color="#FF9F47"/>
</linearGradient>
<linearGradient id="paint2_linear_104_771" x1="-1003.24" y1="159.737" x2="81.0092" y2="290.439" gradientUnits="userSpaceOnUse">
<stop stop-color="white"/>
<stop offset="1" stop-color="white" stop-opacity="0"/>
</linearGradient>
<linearGradient id="paint3_linear_104_771" x1="1480.24" y1="618.219" x2="395.991" y2="487.517" gradientUnits="userSpaceOnUse">
<stop stop-color="white"/>
<stop offset="1" stop-color="white" stop-opacity="0"/>
</linearGradient>
</defs>
</svg>
