<svg width="15" height="8" viewBox="0 0 15 8" fill="none" xmlns="http://www.w3.org/2000/svg">
<path d="M8.36655 7.6289L14.6342 2.62231C14.8781 2.43793 15 2.20769 15 1.93114C15 1.65459 14.878 1.42435 14.6342 1.23998L13.912 0.656369C13.6745 0.466908 13.3858 0.372178 13.0456 0.372178C12.7119 0.372178 12.4198 0.466881 12.1695 0.656369L7.49997 4.38838L2.82082 0.656207C2.58332 0.4668 2.29462 0.37207 1.95441 0.37207C1.6207 0.37207 1.32847 0.466773 1.07832 0.656207L0.356236 1.23987C0.118734 1.4293 8.88167e-07 1.65978 8.74368e-07 1.93103C8.60564e-07 2.2024 0.118734 2.43282 0.356236 2.6222L6.62388 7.6289C6.87419 7.81842 7.16626 7.91323 7.5 7.91323C7.84018 7.91325 8.12904 7.81842 8.36655 7.6289Z" fill="#031D69"/>
</svg>
